<?xml version="1.0" encoding="UTF-8"?>
<!DOCTYPE svg PUBLIC "-//W3C//DTD SVG 1.1//EN" "http://www.w3.org/Graphics/SVG/1.1/DTD/svg11.dtd">
<!-- Creator: CorelDRAW 2019 (64-Bit) -->
<svg xmlns="http://www.w3.org/2000/svg" xml:space="preserve" width="24.565mm" height="14.1489mm" version="1.1" style="shape-rendering:geometricPrecision; text-rendering:geometricPrecision; image-rendering:optimizeQuality; fill-rule:evenodd; clip-rule:evenodd"
viewBox="0 0 167.3355 64.0612"
 xmlns:xlink="http://www.w3.org/1999/xlink"
 xmlns:xodm="http://www.corel.com/coreldraw/odm/2003">
 <defs>
  <style type="text/css">
   <![CDATA[
    .fil0 {fill:#CB1400}
   ]]>
  </style>
 </defs>
 <g id="Layer_x0020_1">
  <metadata id="CorelCorpID_0Corel-Layer"/>
  <g id="_738353648">
   <path class="fil0" d="M91.2385 64.061l3.8823 0c11.6477,-0.5823 19.8007,-9.7061 19.8007,-20.5772 0,-3.6884 -0.7764,-7.377 -2.5236,-10.2886l-21.1593 0 0 30.8659z"/>
   <polygon class="fil0" points="69.8848,64.0612 89.2971,64.0612 89.2971,33.001 69.8848,33.001 "/>
   <path class="fil0" d="M111.2334 31.0597c-1.9413,-2.7176 -4.659,-4.8532 -7.5711,-6.4058 3.4942,-2.5238 5.8237,-6.6004 5.8237,-11.0653 0,-7.5706 -6.0179,-13.5886 -13.5886,-13.5886l-4.6588 0 0 31.0597 19.9948 0z"/>
   <polygon class="fil0" points="69.8848,31.0597 89.2971,31.0597 89.2971,0 69.8848,0 "/>
   <path class="fil0" d="M143.6516 64.061l3.8833 0c11.6476,-0.5823 19.8006,-9.7061 19.8006,-20.5772 0,-3.6884 -0.7764,-7.377 -2.5242,-10.2886l-21.1596 0 0 30.8659z"/>
   <polygon class="fil0" points="122.298,64.0612 141.7107,64.0612 141.7107,33.001 122.298,33.001 "/>
   <path class="fil0" d="M163.6473 31.0597c-1.9418,-2.7176 -4.6598,-4.8532 -7.5717,-6.4058 3.4946,-2.5238 5.8237,-6.6004 5.8237,-11.0653 0,-7.5706 -6.0176,-13.5886 -13.588,-13.5886l-4.6596 0 0 31.0597 19.9956 0z"/>
   <polygon class="fil0" points="122.298,31.0597 141.7107,31.0597 141.7107,0 122.298,0 "/>
   <polygon class="fil0" points="11.0653,33.001 -0,64.061 16.1127,64.061 20.7716,50.472 31.0597,50.472 31.0597,33.001 "/>
   <polygon class="fil0" points="31.0597,0 22.7126,0 11.6479,31.0597 31.0597,31.0597 "/>
   <polygon class="fil0" points="33.0012,50.472 43.2899,50.472 47.9488,64.061 64.0612,64.061 52.9962,33.001 33.0012,33.001 "/>
   <polygon class="fil0" points="52.4136,31.0597 41.3484,0 33.0012,0 33.0012,31.0597 "/>
  </g>
 </g>
</svg>
