<?xml version="1.0" encoding="utf-8"?>
<!-- Generator: Adobe Illustrator 25.4.1, SVG Export Plug-In . SVG Version: 6.00 Build 0)  -->
<svg version="1.0" id="katman_1" xmlns="http://www.w3.org/2000/svg" xmlns:xlink="http://www.w3.org/1999/xlink" x="0px" y="0px"
	 viewBox="600 340 800 300"  xml:space="preserve">
<style type="text/css">
	.st0{fill-rule:evenodd;clip-rule:evenodd;fill:#3DCD52;}
</style>
<g id="LOGOS">
	<g id="Group">
		<path id="Fill-1" class="st0" d="M153.7,496.8h-36.5v-64c0-2.4,0-5.9-4-5.9c-3.8,0-3.8,3.3-3.8,5.9V497c0,5.3,0.7,6,6.5,6h37.8
			c2.5,0,5.7,0,5.7-3.2C159.4,496.8,156.3,496.8,153.7,496.8"/>
		<path id="Fill-2" class="st0" d="M170,447.6c-3.6,0-3.6,3-3.6,5.4V499c0,2.4,0,5.3,3.6,5.3c3.5,0,3.5-2.9,3.5-5.3v-46.1
			C173.5,450.8,173.5,447.6,170,447.6"/>
		<path id="Fill-3" class="st0" d="M170,429c-2.5,0-4.5,1.8-4.5,4.1c0,2.3,2,4.1,4.5,4.1c2.4,0,4.5-1.9,4.5-4.1
			C174.5,430.8,172.5,429,170,429"/>
		<path id="Fill-4" class="st0" d="M198,436.6c0,0.1-0.1,0.2-0.1,0.2C198,436.7,198,436.6,198,436.6z M204.6,448.8h-7.5v-4.8
			c0-6.8,0.6-11.2,9.1-11.2c0.3,0,1.3,0.1,2.3,0.2c1.1,0.1,2.2,0.2,2.6,0.2c1.8,0,2.9-1.4,2.9-2.8c0-0.1,0-1.6-1.6-2.3
			c-1.3-0.6-5-1.3-8.3-1.3c-2.5,0-5,0.6-7.1,1.6c-2.3,1.1-4.1,2.7-5.2,4.6c-0.7,1.2-1.7,3.6-1.7,10.1v5.7h-5.9c-1.1,0-4.5,0-4.5,2.4
			c0,2.5,3.1,2.5,4.5,2.5h5.9V499c0,2.4,0,5.3,3.6,5.3c3.5,0,3.5-2.9,3.5-5.3v-45.4h7.5c3,0,4.5-0.8,4.5-2.5
			C209.1,448.8,206.2,448.8,204.6,448.8L204.6,448.8z"/>
		<path id="Fill-5" class="st0" d="M216.5,471.4c0.9-6.9,5.8-18.5,19.1-18.5c16.4,0,17.8,13.9,18.3,18.5H216.5z M261.3,472.2
			c0-0.3,0-6.5-3.3-12.7c-1.9-3.5-4.4-6.3-7.6-8.2c-0.3-0.2-0.7-0.4-1.1-0.6c-0.3-0.1-0.5-0.3-0.8-0.4c-0.8-0.4-1.6-0.7-2.4-1
			c-0.3-0.1-0.5-0.2-0.8-0.3c-0.9-0.3-1.9-0.6-2.9-0.8c-0.2,0-0.4-0.1-0.6-0.1c-1.1-0.2-2.3-0.4-3.6-0.4c-0.1,0-0.2,0-0.3,0
			c-0.7,0-1.4-0.1-2.1-0.1c-8.3,0-15.2,2.7-19.9,7.8c-4.5,4.9-6.9,12.1-6.9,20.6c0,8.3,2.3,15.2,6.5,20.2c2.3,2.6,5.1,4.6,8.4,6
			c3.5,1.4,7.5,2.2,11.9,2.2c10.3,0,16.2-4.1,19.5-7.5c3.7-3.9,4.8-8,4.8-8.9c0-1.4-1.4-3-3.5-3c-1.4,0-2.7,0.9-3.3,2.3
			c-2,4.7-5.1,8.1-9.2,10c-2.4,1.1-5.1,1.7-8.1,1.7c-6.3,0-11.2-2.1-14.6-6.3c-3.2-3.8-4.9-9.4-5-15.9h38.3
			C258.2,476.7,261.3,476.7,261.3,472.2L261.3,472.2z"/>
		<path id="Fill-6" class="st0" d="M297.2,426.9c-3.9,0-3.9,3.6-3.9,5.9v65.6c0,2.5,0,5.9,4,5.9c3.8,0,3.8-3.3,3.8-5.9v-65.6
			C301.1,430.1,301.1,426.9,297.2,426.9"/>
		<path id="Fill-7" class="st0" d="M424.9,466.6c2.5,0,3.9-2.2,3.9-4v-45.2h-8v45.2C420.8,464.5,422.3,466.6,424.9,466.6"/>
		<path id="Fill-8" class="st0" d="M350.7,476.1c-0.5-0.3-1-0.5-1.5-0.7c-0.2-0.1-0.3-0.2-0.5-0.2c-3.8-1.7-8.4-2.7-12.8-3.7
			c-4.3-0.9-8.4-1.8-11.4-3.2c-3.4-1.6-5-3.8-5-6.7c0-6,7.1-8.6,14.1-8.6c7.3,0,12.9,2.9,14.6,7.5c1,2.8,1.8,3.3,3.3,3.3
			c3.2,0,3.2-2.7,3.2-2.8c0-0.7-0.6-4-3.3-7c-1.7-1.8-3.8-3.3-6.5-4.4c-3.2-1.3-7.2-1.9-11.7-1.9c-7.9,0-13.7,2.1-17.2,6.3
			c-3.3,3.9-3.4,8.1-3.4,8.9c0,4,2,7.7,5.5,10c3.5,2.3,7.1,3.2,14.3,4.9c1.9,0.5,4.2,1,6.7,1.7l0.3,0.1c3.9,1,11.2,2.8,11.2,9.4
			c0,5.1-4.9,10.2-15.9,10.2c-8,0-13.4-3-16.1-9.1l-0.1-0.2c-0.8-1.7-1.5-3.3-3.5-3.3c-0.8,0-1.7,0.3-2.3,0.8
			c-0.7,0.6-1.1,1.3-1.1,2.2c0,3.1,2.6,7.4,6.1,10.3c1.8,1.4,3.6,2.4,5.9,3.2c2.9,1,6.4,1.4,10.7,1.4c9,0,15.7-2.2,19.7-6.5
			c3.6-3.8,3.9-8.2,3.9-9.9C357.8,482.6,355.5,478.8,350.7,476.1"/>
		<path id="Fill-9" class="st0" d="M515.6,453.3c-2.5-2.6-7.3-5.8-15.7-5.8c-11,0-15.5,5.2-18.9,9.1v-4c0-1.6,0-3.3-1-4.3
			c-0.1-0.1-0.3-0.2-0.4-0.2c0,0-0.1-0.1-0.1-0.1c-0.5-0.3-1.1-0.5-1.9-0.5c-3.6,0-3.6,3.1-3.6,5.4v46.1c0,2.5,0,5.4,3.6,5.4
			c0.8,0,1.4-0.2,1.9-0.5c0,0,0.1-0.1,0.1-0.1c0.1-0.1,0.3-0.1,0.4-0.2c1-1,1-2.8,1-4.3v-19.6c0-8.8,0.3-13.3,2-16.7
			c1.5-2.9,3.8-5.3,6.9-7c2.9-1.7,6.2-2.6,9.4-2.6c4.7,0,8.9,1.9,11.3,5.1c2.1,2.8,2.4,6.9,2.4,11v29.8c0,1.6,0,3.3,1,4.3
			c0.1,0.1,0.3,0.2,0.4,0.2c0,0,0.1,0.1,0.1,0.1c0.5,0.3,1.1,0.5,1.9,0.5c3.6,0,3.6-3,3.6-5.4v-31.2
			C520.1,464.8,520.1,457.9,515.6,453.3"/>
		<path id="Fill-10" class="st0" d="M436.1,425.9v7.7c12.9,4.5,22.2,16.7,22.2,31.2c0,18.2-14.8,33-33,33c-18.2,0-33-14.8-33-33
			c0-14.1,9-26.2,21.5-30.9v-7.8c-16.7,5-28.9,20.4-28.9,38.7c0,22.3,18.1,40.4,40.4,40.4c22.3,0,40.4-18.1,40.4-40.4
			C465.7,446.2,453.1,430.6,436.1,425.9"/>
		<path id="Fill-11" class="st0" d="M730,434.4c-13.5-6-21.5-8.3-29.5-8.3c-8.4,0-13.7,3-13.7,7.6c0,14,47.4,10,47.4,42.4
			c0,17.8-15,28.2-35.7,28.2c-16.3,0-24.3-4.2-33.6-9v-20c13.3,8.8,21.5,12,31.8,12c8.9,0,13.7-3.1,13.7-8.6
			c0-15.2-47.4-9.6-47.4-42.9c0-16.1,13.9-26.7,35.5-26.7c10.4,0,19.8,2.2,31.5,7.2V434.4"/>
		<path id="Fill-12" class="st0" d="M796.4,500c-7.9,2.9-14.6,4.2-21.3,4.2c-22.1,0-36.4-12.9-36.4-32.4c0-19.2,14.8-32.8,35.5-32.8
			c6.4,0,14.6,1.6,21.1,4.1v14.7c-5.2-2.8-11.2-4.3-16.1-4.3c-11.9,0-19.5,7.1-19.5,18.1c0,11.2,7.5,18.5,18.8,18.5
			c4.8,0,9-1.1,17.7-4.4V500"/>
		<path id="Fill-13" class="st0" d="M968.6,464.6c0.8-8.7,5.9-13.8,13.6-13.8c7.6,0,12.8,5.2,13.6,13.8H968.6z M980.8,439
			c-19.4,0-33.2,13.7-33.2,32.9c0,19.4,14.3,32.2,36.5,32.2c4.9,0,16.7,0,28-8.4v-12.3c-9.2,6.6-15.4,8.8-23.3,8.8
			c-12.5,0-20.1-6.4-20.8-17.4h45.1C1014.2,452.1,999.1,439,980.8,439L980.8,439z"/>
		<polygon id="Fill-14" class="st0" points="1020.9,503.1 1040.6,503.1 1040.6,440.2 1020.9,440.2 		"/>
		<path id="Fill-15" class="st0" d="M1095.5,485.9c-4.1,3.7-7.5,5.2-11.7,5.2c-9.3,0-15.2-7.6-15.2-19.1c0-12.6,5.9-19.8,15.8-19.8
			c3.6,0,8.2,1.6,11.1,3.7V485.9z M1095.5,410.2V443c-5.3-2.6-10.6-3.9-16.4-3.9c-18,0-30.4,13.3-30.4,32.5
			c0,18.8,12.5,32.7,29.3,32.7c6.7,0,11.9-1.8,17.5-6.2v5.1h19.7v-92.9H1095.5L1095.5,410.2z"/>
		<path id="Fill-16" class="st0" d="M1144.4,464.6c0.8-8.7,5.9-13.8,13.6-13.8c7.6,0,12.9,5.2,13.7,13.8H1144.4z M1156.7,439
			c-19.4,0-33.1,13.7-33.1,32.9c0,19.4,14.3,32.2,36.4,32.2c4.9,0,16.8,0,28.1-8.4v-12.3c-9.3,6.6-15.4,8.8-23.3,8.8
			c-12.4,0-20-6.4-20.7-17.4h45.1C1190.1,452.1,1175,439,1156.7,439L1156.7,439z"/>
		<path id="Fill-17" class="st0" d="M1218.7,458.2h0.3c5.9-13.1,12.4-19.2,20-19.2c3.9,0,7.3,1.5,13.1,5.7l-5.4,17.4
			c-5.2-3.3-8.6-4.6-11.7-4.6c-7.2,0-11.9,6.8-16.2,18.4V503h-19.8v-62.9h19.8V458.2"/>
		<path id="Fill-18" class="st0" d="M1041.5,413.8c1.9,4.9-1.5,11.7-7.4,15.2c-6,3.5-12.3,2.4-14.1-2.5c-1.9-4.9,1.4-11.7,7.4-15.2
			C1033.4,407.7,1039.7,408.9,1041.5,413.8"/>
		<path id="Fill-19" class="st0" d="M867.4,463.1c0-17-11.6-24-23-24c-7.8,0-14.2,3.3-19.9,10.5h-0.3v-39.4h-19.7v92.7h19.7v-39.8
			c4.6-6.7,8.6-9.5,13.2-9.5c6.1,0,10.2,4.4,10.2,13.8v22.1c6.6-3.4,13.4-5.5,19.7-6.3V463.1"/>
		<path id="Fill-20" class="st0" d="M917,439c-8,0-14.2,3-20.5,10.2v-9h-19.7v42.7c6.8,0.7,15.6,3.8,19.7,9v-29.4
			c5.2-7.8,8.9-10.4,13.8-10.4c5.6,0,9.8,3.7,9.8,12.6v38.2h19.7v-39.8C939.9,444.6,926.8,439,917,439"/>
		<polyline id="Fill-21" class="st0" points="950.8,521 927.8,521 927.8,537.3 950,537.3 950,544.3 927.8,544.3 927.8,561.1 
			951.5,561.1 951.5,568.1 920.1,568.1 920.1,514 950.8,514 950.8,521 		"/>
		<polygon id="Fill-22" class="st0" points="969.5,568.1 976.5,568.1 976.5,514 969.5,514 		"/>
		<path id="Fill-23" class="st0" d="M1011.3,537.8c5,0,8.1,3.4,8.3,8.8h-17.9C1002.7,541,1005.9,537.8,1011.3,537.8 M1001.6,551.3
			h25c0-13.2-6-19.6-15.5-19.6c-9.8,0-16.6,7.2-16.6,18c0,9.9,6.1,19,17.2,19c6,0,9.9-1.3,14.2-4.2v-6.8c-4.2,2.7-8.2,4.3-12.5,4.3
			C1006.7,562,1002.7,558.4,1001.6,551.3"/>
		<path id="Fill-24" class="st0" d="M1072.5,541.8c-4-2.8-6.7-3.6-9.8-3.6c-6.4,0-10.9,4.9-10.9,12.2c0,7.4,4.7,11.8,12.1,11.8
			c3,0,5.9-0.8,9.4-2.4v6.9c-2.4,1.1-6.9,2-10.6,2c-10.6,0-18-7.3-18-17.8c0-11.8,6.7-19.2,17.5-19.2c4.1,0,6.9,1,10.3,2.5V541.8"/>
		<path id="Fill-25" class="st0" d="M1104.5,532.4h11.3v6.3h-11.3v18.3c0,4.2,3,5.4,5.1,5.4c2.5,0,5.2-0.9,8-2.6v6.6
			c-2.5,1.4-6.3,2.4-8.6,2.4c-7.6,0-11.5-4.7-11.5-11.2v-18.8h-6.2V538l13.2-12.9V532.4"/>
		<path id="Fill-26" class="st0" d="M1142.7,532.4v8.3h0.1c3.6-6.3,7-8.9,10.3-8.9c2.9,0,5.5,1.3,8.5,4.1l-3.7,6.2
			c-2.1-2.1-4.9-3.6-6.6-3.6c-4.8,0-8.6,4.9-8.6,11v18.6h-7v-35.7H1142.7"/>
		<path id="Fill-27" class="st0" d="M1233.6,541.8c-4.1-2.8-6.8-3.6-9.9-3.6c-6.4,0-10.8,4.9-10.8,12.2c0,7.4,4.7,11.8,12,11.8
			c3,0,5.9-0.8,9.5-2.4v6.9c-2.4,1.1-6.9,2-10.7,2c-10.6,0-18-7.3-18-17.8c0-11.8,6.8-19.2,17.6-19.2c4.1,0,6.9,1,10.3,2.5V541.8"/>
		<polygon id="Fill-28" class="st0" points="1180.2,568.1 1187.3,568.1 1187.3,532.4 1180.2,532.4 		"/>
		<path id="Fill-29" class="st0" d="M1187.5,519.6c0.7,1.7-0.5,4.2-2.6,5.4c-2.1,1.2-4.4,0.8-5-0.9c-0.6-1.7,0.5-4.2,2.7-5.4
			C1184.6,517.5,1186.9,517.9,1187.5,519.6"/>
		<path id="Fill-30" class="st0" d="M873,522.5c-1.2,0-1.8,0.2-2.3,0.8c-0.2,0.2-0.3,0.4-0.3,0.9l-6.3,23.9
			c-1.5,8.4-11.8,16.7-25.2,16.7h-18.7l3.2-12.3h12c1.2,0,2.2-0.4,3-1.3c0.3-0.3,0.7-0.9,0.7-1.4l5-20.9
			c1.5-8.4,10.3-17.6,23.7-17.6H887l-2.4,11.3H873z M877.3,537.1l2.1-7.7h19.4c2.4-11.2,0.5-21.6-6.3-28.4
			c-13.8-13.8-42.6-9.1-64,11.4c-3.3,3.2-6.2,6.6-8.8,10.2h11.7l-2.7,7.7h-14c-1.3,2.4-2.6,4.9-3.5,7.3h16.6l-2.6,7.7h-16.3
			c-2.8,11.8-1,22.9,6,29.9c13.6,13.6,42.3,8.8,63.8-11.7c3.8-3.6,6.9-7.4,9.7-11.4h-15l2.3-7.7h17.6c1.3-2.5,2.5-4.9,3.4-7.4H877.3
			L877.3,537.1z"/>
		<polygon id="Fill-31" class="st0" points="589.7,585.5 593.7,585.5 593.7,349.2 589.7,349.2 		"/>
	</g>
</g>
</svg>
