<svg xmlns="http://www.w3.org/2000/svg" viewBox="10 320 835 165"  clip-rule="nonzero" stroke-linejoin="round" stroke-miterlimit="2"><path d="M0 1.021h803.146v803.146H0z" fill="#fff"/><path d="M35.429 326.859h732.284V478.33H35.429z" fill="#0066b3"/><g fill="#231f20" fill-rule="nonzero"><path d="M35.429 334.642 29.2 330.75v-7.783l6.229-3.892h739.484v7.783l-7.2 7.783z"/><path d="m760.517 326.859 7.196-7.783h7.2v167.038h-7.2l-7.196-7.783z"/><path d="m767.713 470.546 7.2 7.783v7.783H28.233v-7.783l7.196-7.783z"/><use href="#A"/><use href="#B"/></g><path d="M35.429 326.859h160.954V478.33H35.429z" fill="#fff"/><g fill="#231f20" fill-rule="nonzero"><path d="M35.429 334.642 29.2 330.75v-7.783l6.229-3.892h168.15v7.783l-7.196 7.783z"/><path d="m189.183 326.859 7.2-7.783h7.196v167.038h-7.196l-7.2-7.783z"/><path d="m196.383 470.546 7.196 7.783v7.783H28.233v-7.783l7.196-7.783z"/><use href="#A"/><use href="#B"/></g><path d="M291.084 356.671h-60.908v12.983h21.783v62.513H269.3v-62.513h21.783zm20.9 76.938c17.338 0 26.675-13.946 26.675-28.371s-8.892-28.371-26.675-28.371-26.679 13.946-26.679 28.371 8.892 28.371 26.679 28.371m0-10.579c-8.892 0-10.225-11.058-10.225-17.792s1.333-17.792 10.225-17.792c8.446 0 10.225 11.058 10.225 17.792s-1.779 17.792-10.225 17.792m52.908-45.201h-16.45v73.092h16.45v-22.6c4.446 3.367 8.45 5.288 13.338 5.288 12.45 0 23.567-6.729 23.567-29.813 0-20.196-13.338-26.929-22.233-26.929-6.221 0-10.225 2.888-14.671 6.25v-5.288zm0 17.792c2.667-3.367 5.779-6.25 10.671-6.25 8.892 0 10.671 10.579 10.671 16.35 0 6.729-1.333 17.308-11.117 17.308-4.888 0-8-2.883-10.225-6.25zm129.829 11.063c-1.779 7.692-5.779 14.904-16.008 14.904-14.225 0-17.338-17.313-17.338-26.929s3.113-26.925 17.338-26.925c10.229 0 14.229 6.729 16.008 14.904l16.004-1.921c-2.667-16.35-14.671-25.008-32.013-25.008-24.008 0-34.679 19.717-34.679 38.95 0 18.754 10.671 38.95 34.679 38.95 17.788 0 29.346-9.617 32.013-25.004zm62.692 25.483h15.558c-2.221-3.367-2.221-7.213-2.221-11.058V394.18c0-10.579-7.558-17.313-24.008-17.313-12.45 0-21.342 3.367-24.9 15.388l15.563 1.925c.888-4.808 4.446-6.733 9.338-6.733 6.225 0 8.892 2.404 8 10.1-12.892 1.442-35.567 4.325-35.567 19.713 0 10.1 8.446 16.35 19.117 16.35 7.558 0 11.117-2.404 17.342-6.25l1.779 4.808zm-2.671-16.35c-3.113 3.846-7.558 7.213-14.225 7.213-4.004 0-5.783-2.883-5.783-5.771 0-8.175 13.342-8.654 20.008-9.617zm28.013 16.35h13.338l1.333-4.329c4.892 3.85 8.45 5.771 15.117 5.771 12.45 0 23.567-6.729 23.567-29.813 0-20.196-13.338-26.929-22.229-26.929-6.225 0-10.229 2.888-14.675 6.25v-26.446h-16.45zm16.45-36.546c2.667-3.367 5.779-6.25 10.671-6.25 8.892 0 10.671 10.579 10.671 16.35 0 6.729-1.333 17.308-11.113 17.308-4.892 0-8.004-2.883-10.229-6.25zm47.129-38.95h16.008v75.496h-16.008zm43.129 42.796c0-5.771 3.113-12.021 10.225-12.021 7.558 0 10.229 5.771 10.229 12.021zm36.458 9.138c.446-25.488-11.558-31.738-26.679-31.738-17.783 0-26.675 13.946-26.675 28.371s8.892 28.371 26.675 28.371c11.563 0 23.121-6.25 26.679-16.829l-15.117-2.404c-.888 4.329-4.004 8.654-9.783 8.654-8.446 0-12.892-7.692-12.45-14.425z" fill="#fff"/><path d="m99.9 365.325 5.779-1.442c25.788-1.442 26.679-.479 40.017 2.888 1.333.479 3.113 2.883 3.113 2.883l-53.8 48.088-27.121-24.046z" fill="#0066b3"/><path d="m158.146 416.3 1.779-4.808c1.333-23.083 0-24.046-3.113-35.588-.892-1.442-3.558-3.363-3.558-3.363l-54.242 48.083 27.121 24.046z" fill="#a7a9ac"/><path d="M80.783 433.13c-6.671-10.579-2.671-24.046 8.446-30.296s25.346-2.404 32.013 8.175c6.225 10.579 2.667 24.042-8.892 29.813-11.117 6.254-25.346 2.888-31.567-7.692" fill="#231f20"/><g fill="#fff"><g fill-rule="nonzero"><path d="m81.363 432.709.046.754-.579.421-.629-.333-.188-.3v-.004l-.004-.004 1.171-.833z"/><path d="m81.183 432.417-1.171.833v-.004l-.004-.004-.179-.304-.008-.008 1.183-.813z"/><path d="m81.008 432.125-1.179.813-.008-.008-.175-.304-.004-.004v-.008l1.192-.788.175.3z"/><path d="m80.842 431.834-1.196.792-.004-.004v-.008l-.171-.304-.004-.004v-.004l1.204-.771z"/><path d="m80.679 431.542-1.208.767-.004-.004v-.004l-.163-.308-.008-.008 1.221-.75.163.308z"/><path d="m80.521 431.246-1.217.746-.008-.008-.158-.308v-.008l-.004-.004 1.229-.725z"/><path d="m80.371 430.95-1.233.725v-.008l-.004-.004-.15-.308-.004-.004-.004-.008 1.242-.7.154.308z"/><path d="m80.221 430.655-1.238.7-.004-.004-.004-.008-.146-.308-.004-.004v-.008l1.25-.679.146.313z"/><path d="m80.079 430.355-1.25.679-.004-.004v-.008l-.142-.308-.004-.008v-.004l1.263-.654.138.308z"/><path d="m79.946 430.055-1.263.658-.004-.008v-.004l-.138-.313v-.004l-.004-.008 1.271-.629z"/><path d="m79.817 429.755-1.275.633v-.004l-.004-.008-.129-.313-.004-.004v-.008l1.279-.608z"/><path d="m79.692 429.455-1.283.608-.004-.004v-.008l-.125-.313-.004-.004v-.008l1.292-.583z"/><path d="m79.571 429.155-1.292.583-.004-.004v-.008l-.121-.313v-.008l-.004-.004 1.3-.563z"/><path d="m79.454 428.85-1.3.563v-.008l-.004-.004-.113-.317-.004-.004v-.008l1.308-.538z"/><path d="m79.346 428.546-1.308.538-.004-.004v-.008l-.108-.317-.004-.004v-.008l1.317-.513.108.317z"/><path d="m79.242 428.242-1.317.513-.004-.004v-.008l-.104-.317v-.004l-.004-.008 1.329-.488z"/><path d="m79.142 427.938-1.325.488v-.004l-.004-.008-.096-.317v-.008l-.004-.004 1.333-.463z"/><path d="m79.05 427.634-1.333.463v-.008l-.004-.004-.092-.317v-.008l-.004-.004 1.342-.442.092.321z"/><path d="m78.963 427.325-1.342.442v-.008l-.004-.004-.083-.321-.004-.008v-.004l1.346-.413z"/><path d="m78.879 427.021-1.346.413-.004-.008v-.004l-.083-.321v-.013l1.35-.388z"/><path d="m78.8 426.713-1.354.388v-.013l-.079-.321v-.013l1.358-.363z"/><path d="m78.729 426.405-1.363.363v-.013l-.071-.321-.004-.004v-.008l1.367-.338z"/><path d="m78.658 426.096-1.363.338-.004-.004v-.008l-.063-.321-.004-.004v-.008l1.371-.313.063.321z"/><path d="m78.596 425.788-1.367.313-.004-.004v-.008l-.058-.321-.004-.008v-.004l1.375-.288z"/><path d="m78.542 425.48-1.375.288-.004-.008v-.004l-.054-.325v-.004l-.004-.008 1.383-.258.054.321z"/><path d="m78.488 425.171-1.379.258v-.004l-.004-.008-.046-.321-.004-.004v-.008l1.383-.233z"/><path d="m78.442 424.863-1.383.233-.004-.004v-.008l-.042-.321-.004-.008v-.004l1.388-.213.046.325z"/><path d="m78.396 424.555-1.383.208-.004-.008v-.004l-.038-.325v-.013l1.388-.183.038.325z"/><path d="m78.358 424.242-1.388.183v-.013l-.038-.321v-.017l1.392-.154.033.321z"/><path d="m78.329 423.934-1.396.158v-.017l-.029-.321v-.013l1.396-.133z"/><path d="m78.3 423.625-1.396.129v-.013l-.025-.325v-.013l1.4-.104z"/><path d="m78.279 423.313-1.4.104v-.013l-.017-.321v-.013l1.396-.079z"/><path d="m78.263 423.005-1.4.079v-.013l-.013-.325v-.013l1.396-.054z"/><path d="m78.25 422.696-1.4.05v-.013l-.008-.321v-.013l1.4-.029z"/><path d="m78.242 422.384-1.4.029v-.013l-.004-.338h1.4z"/><path d="M78.238 422.075h-1.4v-.346l1.404.025z"/><path d="m78.238 421.767-1.4-.025v-.013l.008-.321v-.013l1.4.05z"/><path d="m78.246 421.459-1.4-.05v-.013l.013-.325v-.013l1.4.079z"/><path d="m78.258 421.15-1.4-.079v-.013l.021-.321v-.013l1.396.104z"/><path d="m78.275 420.842-1.396-.104v-.013l.021-.321v-.013l1.396.129z"/><path d="m78.296 420.534-1.396-.129v-.013l.029-.317v-.017l1.396.154z"/><path d="m78.321 420.225-1.392-.15v-.017l.033-.317v-.013l1.392.175z"/><path d="m78.354 419.917-1.392-.175v-.013l.038-.321v-.004l.004-.008 1.388.204z"/><path d="M78.388 419.613 77 419.409v-.004l.004-.008.042-.317v-.013l1.383.225-.042.321z"/><path d="m78.429 419.305-1.383-.225v-.013l.046-.317.004-.008v-.004l1.379.25z"/><path d="m78.475 419-1.383-.25.004-.008v-.004l.05-.317.004-.008v-.004l1.375.275z"/><path d="m78.525 418.696-1.379-.275.004-.008v-.004l.058-.317v-.013l1.371.3z"/><path d="m78.579 418.392-1.371-.3v-.013l.063-.317v-.013l1.371.325z"/><path d="m78.638 418.088-1.367-.325v-.013l.067-.313.004-.008v-.004l1.363.35z"/><path d="m78.7 417.788-1.363-.35.004-.008v-.004l.071-.313.004-.008v-.004l1.358.375z"/><path d="m78.771 417.488-1.358-.375.004-.008v-.004l.075-.313.004-.008v-.004l1.35.4z"/><path d="m78.842 417.184-1.35-.396.004-.008v-.004l.079-.313.004-.004v-.008l1.346.425z"/><path d="m78.921 416.888-1.346-.425.004-.004v-.008l.088-.308v-.013l1.342.446-.088.313z"/><path d="m79.004 416.588-1.338-.446v-.013l.092-.308.004-.004v-.008l1.333.471z"/><path d="m79.092 416.292-1.333-.471.004-.004v-.008l.096-.308v-.004l.004-.004 1.325.492z"/><path d="m79.183 415.992-1.325-.492v-.004l.004-.004.1-.308v-.004l.004-.008 1.317.517z"/><path d="m79.279 415.7-1.317-.517v-.004l.004-.008.104-.304v-.004l.004-.008 1.308.538-.104.308z"/><path d="m79.379 415.404-1.308-.538v-.004l.004-.008.108-.304v-.004l.004-.004 1.3.558z"/><path d="m79.483 415.113-1.3-.563v-.004l.004-.004.113-.304.004-.004v-.008l1.292.583z"/><path d="m79.592 414.821-1.292-.583.004-.004v-.008l.121-.3v-.004l.004-.004 1.283.604z"/><path d="m79.708 414.529-1.283-.604v-.004l.004-.004.121-.3.004-.008v-.004l1.275.625z"/><path d="m79.825 414.242-1.275-.625.004-.008v-.004l.129-.296.004-.008v-.004l1.267.65z"/><path d="m79.95 413.954-1.267-.646.004-.008v-.004l.133-.296.004-.004v-.008l1.258.671z"/><path d="M80.075 413.671 78.821 413l.004-.004v-.008l.138-.292.004-.008v-.004l1.246.692-.138.296z"/><path d="m80.208 413.384-1.246-.688.004-.008v-.004l.146-.3v-.004l1.238.713z"/><path d="m80.346 413.104-1.238-.713.004-.008v-.004l.146-.292.008-.008 1.225.733-.146.292z"/><path d="m80.488 412.821-1.229-.733.008-.008.15-.292.004-.004v-.004l1.217.754-.15.288z"/><path d="m80.629 412.542-1.213-.754.004-.004v-.004l.154-.288.008-.008 1.204.771-.158.288z"/><path d="m80.779 412.267-1.204-.775.008-.008.158-.288.004-.004v-.004l1.196.792z"/><path d="m80.933 411.988-1.192-.792.004-.004v-.004l.167-.283v-.008l.004-.004 1.183.813z"/><path d="m81.092 411.717-1.179-.813v-.008l.004-.004.171-.279v-.008l.004-.004 1.171.833z"/><path d="m81.254 411.442-1.167-.829v-.008l.004-.004.171-.279.008-.008 1.158.85-.175.279z"/><path d="m81.421 411.175-1.158-.854.008-.008.175-.279.008-.008 1.146.871-.179.279z"/><path d="m81.592 410.904-1.146-.871.008-.008.179-.275.008-.008 1.133.888-.183.275z"/><path d="m81.771 410.638-1.138-.888.008-.008.188-.275v-.004l.004-.004 1.121.908z"/><path d="m81.95 410.375-1.121-.908v-.004l.004-.004.192-.271.004-.004v-.004l1.108.925z"/><path d="m82.133 410.113-1.108-.925.004-.004v-.004l.196-.267.004-.008.004-.004 1.096.946z"/><path d="m82.321 409.854-1.096-.942.004-.008.004-.004.196-.263.004-.008.004-.004 1.083.963-.2.267z"/><path d="m82.513 409.596-1.083-.958.004-.008.004-.004.204-.263.004-.004v-.004l1.071.979z"/><path d="m82.708 409.342-1.067-.979.004-.004v-.004l.208-.263.008-.008 1.054.996z"/><path d="m82.908 409.088-1.054-.996.008-.008.213-.258.004-.004v-.004l1.042 1.013z"/><path d="m83.117 408.838-1.042-1.013.004-.004v-.004l.217-.254.008-.008 1.029 1.029-.217.254z"/><path d="m83.325 408.592-1.029-1.029.008-.008.221-.254.008-.008 1.013 1.046-.221.254z"/><path d="m83.538 408.346-1.013-1.046.008-.008.225-.25v-.004l.004-.004 1 1.063-.225.25z"/><path d="m83.754 408.104-.996-1.063v-.004l.004-.004.229-.246.008-.008.983 1.075z"/><path d="m83.975 407.863-.983-1.075.008-.008.233-.246.008-.008.967 1.092-.233.246z"/><path d="m84.2 407.625-.967-1.092.008-.008.238-.242v-.004l.004-.004.954 1.108-.238.242z"/><path d="m84.433 407.392-.954-1.108v-.004l.254-.25.938 1.121z"/><path d="m84.667 407.159-.942-1.121.008-.008.254-.246.925 1.138-.246.238z"/><path d="m84.904 406.929-.925-1.138.008-.008.25-.233.004-.004.913 1.15z"/><path d="m85.146 406.704-.908-1.154.004-.004.254-.233.004-.004h.004l.896 1.163z"/><path d="m85.392 406.479-.896-1.167.004-.004h.004l.258-.229.008-.008.879 1.183z"/><path d="m85.642 406.259-.879-1.179.008-.008.263-.221.008-.008.858 1.192-.258.225z"/><path d="m85.896 406.042-.863-1.192.008-.008.263-.221.008-.008.846 1.208-.263.221z"/><path d="m86.15 405.829-.846-1.208.008-.008.271-.217.008-.008.829 1.221-.271.221z"/><path d="m86.413 405.617-.829-1.221.008-.008.275-.213.008-.008.813 1.233z"/><path d="m86.679 405.409-.813-1.233.008-.008.275-.208.008-.008.8 1.246-.279.213z"/><path d="m86.95 405.204-.8-1.246.008-.008.283-.208h.004l.004-.004.779 1.258z"/><path d="m87.221 405-.779-1.258h.004l.004-.004.283-.204.004-.004h.004l.767 1.267z"/><path d="m87.5 404.8-.767-1.267.004-.004h.004l.292-.204h.004l.004-.004.746 1.279z"/><path d="m87.779 404.609-.746-1.283h.004l.004-.004.292-.196.008-.008.733 1.292z"/><path d="m88.067 404.417-.733-1.292.008-.008.3-.192.008-.008.713 1.304z"/><path d="m88.354 404.225-.713-1.3.008-.008.3-.188.004-.004h.004l.696 1.313z"/><path d="m88.646 404.042-.696-1.313.004-.004h.004l.304-.188.004-.004h.004l.679 1.321z"/><path d="m88.942 403.863-.679-1.325.004-.004h.004l.308-.183.004-.004h.004l.667 1.333z"/><path d="m89.242 403.684-.663-1.333.004-.004h.004l.313-.179.004-.004.008-.004.646 1.346z"/><path d="m89.546 403.509-.646-1.342.004-.004.008-.004.321-.179h.008l.004-.004.625 1.354-.325.179z"/><path d="m89.863 403.334-.629-1.354h.008l.004-.004.325-.171.008-.008.608 1.367-.325.171z"/><path d="m90.179 403.167-.608-1.363.008-.008.329-.167h.004l.004-.004.592 1.375z"/><path d="m90.5 403.004-.592-1.375h.004l.004-.004.338-.167h.004l.571 1.383z"/><path d="m90.817 402.846-.571-1.383.008-.004h.004l.329-.158h.004l.004-.004.554 1.392z"/><path d="m91.142 402.692-.554-1.392h.004l.004-.004.333-.15h.004l.008-.004.529 1.4z"/><path d="m91.463 402.546-.533-1.4h.004l.008-.004.333-.146h.004l.004-.004.513 1.408z"/><path d="m91.788 402.404-.513-1.408h.004l.004-.004.338-.138.004-.004h.004l.492 1.417z"/><path d="m92.113 402.271-.492-1.417.004-.004h.004l.338-.133.004-.004h.004l.475 1.425z"/><path d="m92.442 402.138-.475-1.421.004-.004h.004l.338-.129.004-.004h.004l.458 1.433z"/><path d="m92.767 402.013-.454-1.429.004-.004h.004l.342-.125h.004l.004-.004.438 1.442z"/><path d="m93.096 401.896-.433-1.442h.004l.004-.004.342-.117h.004l.004-.004.417 1.446z"/><path d="m93.429 401.779-.417-1.446h.004l.004-.004.342-.108.004-.004h.004l.4 1.45z"/><path d="m93.758 401.671-.396-1.45.004-.004h.004l.342-.108h.013l.375 1.454z"/><path d="m94.092 401.567-.379-1.458h.013l.342-.104h.008l.358 1.463-.342.1z"/><path d="m94.425 401.471-.358-1.467h.008l.346-.096.004-.004h.004l.342 1.471z"/><path d="m94.758 401.375-.338-1.467.004-.004h.004l.346-.092h.008l.321 1.475z"/><path d="m95.096 401.288-.321-1.475h.008l.346-.088h.013l.3 1.479-.346.083z"/><path d="m95.429 401.204-.3-1.479h.013l.346-.079.004-.004h.004l.279 1.483z"/><path d="m95.767 401.129-.279-1.483.004-.004h.004l.346-.075h.013l.258 1.488z"/><path d="m96.104 401.054-.263-1.488h.013l.346-.071h.008l.246 1.492z"/><path d="m96.442 400.988-.242-1.492h.008l.35-.063.004-.004h.004l.225 1.496-.35.063z"/><path d="m96.779 400.925-.221-1.492.004-.004h.004l.35-.058h.008l.204 1.496-.35.058z"/><path d="m97.121 400.871-.204-1.5h.008l.35-.054h.008l.188 1.5z"/><path d="m97.458 400.817-.183-1.5h.008l.35-.05h.008l.167 1.504z"/><path d="m97.8 400.771-.167-1.504h.008l.35-.042H98l.15 1.504z"/><path d="m98.138 400.729-.146-1.504H98l.35-.038h.008l.004-.004.125 1.508-.35.038z"/><path d="m98.479 400.696-.129-1.508h.008l.004-.004.35-.029h.008l.108 1.508-.35.033z"/><path d="m98.821 400.663-.108-1.508h.008l.35-.029h.008l.092 1.513z"/><path d="m99.163 400.638-.092-1.513h.008l.35-.021h.013l.071 1.513z"/><path d="m99.5 400.617-.071-1.513h.013l.35-.017h.008l.05 1.513z"/><path d="m99.842 400.6-.05-1.513h.008l.35-.013h.008l.033 1.513-.35.013z"/><path d="m100.183 400.588-.033-1.513h.008l.354-.008h.008l.013 1.517z"/><path d="m100.525 400.584-.017-1.517h.371l-.008 1.517z"/><path d="m100.863 400.579.004-1.513h.013l.358.004-.025 1.513z"/><path d="m101.204 400.584.025-1.513h.008l.358.008-.042 1.517z"/><path d="m101.542 400.592.046-1.513h.008l.35.017h.008l-.063 1.513-.35-.017z"/><path d="m101.883 400.609.063-1.513h.008l.35.017h.008l-.079 1.513z"/><path d="m102.221 400.625.083-1.513h.008l.346.025h.013l-.1 1.513z"/><path d="m102.563 400.65.096-1.513h.013l.346.029h.004l.004.004-.117 1.508z"/><path d="m102.9 400.679.117-1.513h.004l.004.004.35.033h.008l-.138 1.508-.346-.033z"/><path d="m103.238 400.713.138-1.508h.008l.346.038h.004l.004.004-.154 1.504z"/><path d="m103.575 400.75.154-1.508h.004l.004.004.346.042h.008l-.171 1.504-.346-.042z"/><path d="m103.913 400.792.171-1.504h.008l.346.05h.004l.004.004-.192 1.5z"/><path d="m104.246 400.838.192-1.5h.004l.004.004.346.05.004.004h.004l-.208 1.496z"/><path d="m104.583 400.892.208-1.5.004.004h.004l.342.058h.013l-.229 1.496z"/><path d="m104.917 400.95.225-1.496h.013l.342.067h.008l-.246 1.492z"/><path d="m105.25 401.009.246-1.488h.008l.342.067.004.004h.004l-.263 1.488-.342-.071z"/><path d="m105.579 401.075.267-1.488.004.004h.004l.342.071.004.004h.004l-.283 1.483z"/><path d="m105.913 401.146.283-1.483.004.004h.004l.338.079h.008l-.3 1.479z"/><path d="m106.242 401.225.3-1.479h.008l.338.083h.013l-.321 1.475z"/><path d="m106.571 401.304.317-1.475h.013l.333.088.008.004h.004l-.338 1.471z"/><path d="m106.9 401.388.333-1.471.008.004h.004l.333.092h.004l.004.004-.354 1.463z"/><path d="m107.225 401.479.354-1.467h.004l.004.004.333.096h.004l.008.004-.375 1.458z"/><path d="m107.55 401.571.371-1.458h.004l.008.004.329.1h.004l.008.004-.392 1.454-.333-.104z"/><path d="m107.875 401.671.388-1.454h.004l.008.004.329.104.004.004h.004l-.408 1.45z"/><path d="m108.196 401.775.408-1.45.004.004h.004l.329.113h.008l-.425 1.446z"/><path d="m108.517 401.884.425-1.442h.008l.329.117.004.004h.004l-.442 1.438z"/><path d="m108.838 401.996.442-1.438.004.004h.004l.329.121h.004l.004.004-.463 1.429z"/><path d="m109.154 402.113.463-1.429h.004l.004.004.325.125h.004l.004.004-.479 1.421z"/><path d="m109.471 402.234.479-1.421h.004l.004.004.321.129h.008l-.496 1.417z"/><path d="m109.783 402.363.496-1.417h.008l.321.138h.008l.004.004-.517 1.408-.321-.133z"/><path d="m110.096 402.492.513-1.408h.008l.004.004.317.138h.004l.004.004-.529 1.4z"/><path d="m110.408 402.625.529-1.4h.004l.004.004.317.142.008.004h.004l-.55 1.396z"/><path d="m110.717 402.767.546-1.396.008.004h.004l.313.15h.004l.004.004-.563 1.383-.317-.146z"/><path d="m111.025 402.909.563-1.383h.004l.004.004.317.15.004.004h.004l-.583 1.379z"/><path d="m111.329 403.059.583-1.379.004.004h.004l.308.158h.004l.004.004-.6 1.367z"/><path d="m111.629 403.209.6-1.367h.004l.004.004.313.163h.004l.004.004-.621 1.358z"/><path d="m111.929 403.367.621-1.358h.004l.004.004.304.167h.004l.004.004-.633 1.35z"/><path d="m112.229 403.529.633-1.35h.004l.004.004.304.167.008.008-.65 1.338-.304-.167z"/><path d="m112.525 403.692.65-1.342.008.008.304.175h.004l.004.004-.667 1.329z"/><path d="m112.821 403.863.667-1.329h.004l.004.004.3.179h.004l.004.004-.683 1.321z"/><path d="m113.113 404.038.683-1.321h.004l.004.004.296.183.004.004h.004l-.7 1.313z"/><path d="m113.4 404.213.7-1.308.004.004h.004l.296.188.008.008-.717 1.3z"/><path d="m113.688 404.396.717-1.3.008.008.292.192h.004l.004.004-.733 1.288z"/><path d="m113.971 404.584.733-1.288h.004l.004.004.292.196.008.008-.754 1.275-.288-.196z"/><path d="m114.25 404.775.754-1.279.008.008.288.2h.004l.004.004-.771 1.267z"/><path d="m114.529 404.971.771-1.267h.004l.004.004.283.204.008.008-.788 1.254z"/><path d="m114.804 405.167.788-1.254.008.008.279.208.008.008-.8 1.242-.283-.213z"/><path d="m115.079 405.371.8-1.242.008.008.279.213.004.004h.004l-.817 1.229-.279-.213z"/><path d="m115.35 405.579.817-1.229.004.004h.004l.275.221h.004l.004.004-.833 1.217z"/><path d="m115.617 405.792.833-1.217h.004l.004.004.275.221.008.008-.854 1.204z"/><path d="m115.883 406.004.85-1.204.008.008.267.225.008.008-.867 1.188-.267-.225z"/><path d="m116.142 406.225.867-1.192.008.008.267.229.008.008-.883 1.175-.267-.229z"/><path d="m116.4 406.446.883-1.175.008.008.263.233.008.008-.896 1.163-.267-.238z"/><path d="m116.658 406.675.896-1.163.008.008.263.238v.004l.004.004-.913 1.146z"/><path d="m116.908 406.909.917-1.15v.004l.004.004.258.242.008.008-.929 1.133z"/><path d="m117.158 407.142.929-1.133.008.008.258.25.004.004-.946 1.117-.254-.246z"/><path d="m117.404 407.379.946-1.117.258.258v.004l.004.004-.958 1.104-.25-.254z"/><path d="m117.646 407.625.963-1.104v.004l.258.263v.004l-.975 1.088-.246-.254z"/><path d="m117.883 407.871.979-1.088.004.004v.004l.246.258.008.008-.992 1.071-.246-.258z"/><path d="m118.121 408.121.992-1.071.008.008.238.267.008.008-1.004 1.054-.242-.267z"/><path d="m118.354 408.379 1.004-1.054.008.008.233.267.008.008-1.021 1.038-.233-.267z"/><path d="m118.583 408.638 1.017-1.038.008.008.233.271.008.008-1.038 1.021-.229-.271z"/><path d="m118.808 408.9 1.033-1.021.008.008.225.275.008.008-1.05 1.004-.225-.275z"/><path d="m119.029 409.167 1.046-1.004.008.008.225.279.008.008-1.063.988-.225-.279z"/><path d="m119.246 409.434 1.063-.983.008.008.221.283.004.004v.004l-1.075.967z"/><path d="m119.458 409.709 1.079-.967.004.004v.004l.217.288.008.008-1.092.95-.217-.288z"/><path d="m119.671 409.988 1.088-.95.008.008.213.292.008.008-1.104.933-.213-.292z"/><path d="m119.875 410.267 1.104-.929.008.008.208.296.008.008-1.121.913-.208-.296z"/><path d="m120.079 410.554 1.117-.913.008.008.204.3v.004l.004.004-1.129.892z"/><path d="m120.275 410.842 1.133-.892v.004l.004.004.2.304.008.008-1.146.875-.2-.304z"/><path d="m120.471 411.134 1.142-.871.008.008.196.308.021.029-1.171.833z"/><path d="m120.646 411.413 1.171-.833.021.029.179.317.008.008-1.196.792z"/><path d="m120.825 411.717 1.192-.792.008.008.175.317.004.004v.008l-1.204.771z"/><path d="m120.996 412.021 1.204-.771.004.004v.008l.171.317.004.004.004.008-1.217.746-.171-.317z"/><path d="m121.158 412.329 1.217-.75.004.004.167.329.008.008-1.229.725z"/><path d="m121.317 412.638 1.229-.725.008.008.158.321v.008l.004.004-1.238.704-.163-.321z"/><path d="m121.471 412.946 1.242-.704v.008l.004.004.154.321.004.008v.004l-1.25.683z"/><path d="m121.621 413.259 1.25-.683.004.008v.004l.15.325v.004l.004.008-1.263.658z"/><path d="m121.763 413.571 1.263-.658v.004l.004.008.142.325.004.004v.004l-1.271.638z"/><path d="m121.9 413.884 1.271-.633.004.004v.004l.138.329v.004l.004.008-1.279.608z"/><path d="m122.029 414.2 1.283-.613v.004l.004.008.129.325.004.008v.004l-1.288.588z"/><path d="m122.158 414.513 1.288-.588.004.008v.004l.129.329v.004l.004.008-1.3.563-.125-.329z"/><path d="m122.279 414.829 1.3-.563v.004l.004.008.117.329.004.004v.008l-1.308.542-.117-.333z"/><path d="m122.392 415.15 1.308-.542.004.004v.008l.117.329v.008l.004.004-1.317.517z"/><path d="m122.504 415.467 1.317-.517v.008l.004.004.104.333.004.004v.008l-1.321.492z"/><path d="m122.608 415.788 1.321-.492.004.004v.008l.104.329v.008l.004.004-1.333.467-.1-.329z"/><path d="m122.704 416.109 1.333-.471v.008l.004.004.096.333.004.008v.004l-1.338.442z"/><path d="m122.8 416.425 1.338-.442.004.008v.004l.092.333v.008l.004.004-1.346.421-.092-.338z"/><path d="m122.888 416.75 1.346-.421v.008l.004.004.083.338.004.004v.008l-1.35.392z"/><path d="m122.971 417.071 1.35-.392.004.004v.008l.079.333.004.008v.004l-1.358.367z"/><path d="m123.046 417.392 1.358-.367.004.008v.004l.075.338v.004l.004.008-1.367.342-.075-.338z"/><path d="m123.121 417.717 1.363-.342v.004l.004.008.067.333.004.008v.008l-1.371.313-.067-.333z"/><path d="m123.188 418.038 1.367-.317.004.008v.008l.063.333v.008l.004.004-1.375.292-.063-.338z"/><path d="m123.246 418.363 1.375-.292v.008l.004.004.058.338v.013l-1.379.267z"/><path d="m123.304 418.688 1.379-.267v.013l.054.338v.013l-1.383.242z"/><path d="m123.354 419.013 1.383-.242v.013l.046.338.004.008v.004l-1.388.213-.046-.333z"/><path d="m123.4 419.334 1.383-.213.004.008v.004l.042.338v.013l-1.388.188-.042-.338z"/><path d="m123.438 419.659 1.392-.188v.013l.038.338v.017l-1.392.158z"/><path d="m123.475 419.984 1.392-.163v.017l.033.338v.013l-1.396.133z"/><path d="m123.504 420.309 1.396-.133v.013l.025.338v.013l-1.396.108z"/><path d="m123.529 420.634 1.396-.108v.013l.021.338v.013l-1.4.083z"/><path d="m123.546 420.959 1.4-.083v.013l.013.338v.013l-1.396.058z"/><path d="m123.558 421.28 1.4-.054v.013l.013.338v.013l-1.4.029z"/><path d="m123.571 421.605 1.4-.029v.363l-1.4.004z"/><path d="m123.571 421.93 1.4-.004v.363l-1.4-.021z"/><path d="m123.571 422.255 1.4.021v.013l-.008.342v.008l-1.4-.05z"/><path d="m123.563 422.575 1.4.05v.013l-.013.338v.013l-1.4-.075z"/><path d="m123.55 422.896 1.4.079v.013l-.021.333v.013l-1.396-.1z"/><path d="m123.533 423.221 1.396.1v.013l-.021.338-.004.004v.008l-1.396-.129z"/><path d="m123.513 423.542 1.396.129-.004.004v.008l-.029.333v.013l-1.392-.154z"/><path d="m123.483 423.863 1.392.154v.013l-.033.333v.008l-.004.004-1.388-.179z"/><path d="m123.45 424.184 1.392.179v.008l-.004.004-.038.333v.013l-1.388-.208z"/><path d="m123.413 424.5 1.388.208v.013l-.046.333v.004l-.004.008-1.383-.233.046-.333z"/><path d="m123.371 424.821 1.383.233v.004l-.004.008-.05.329v.013l-1.379-.258z"/><path d="m123.321 425.138 1.379.258v.013l-.058.329v.013l-1.375-.283z"/><path d="m123.267 425.455 1.375.283v.013l-.063.329v.013l-1.371-.308z"/><path d="m123.208 425.771 1.371.308v.013l-.067.329-.004.008v.004l-1.367-.333z"/><path d="m123.146 426.084 1.367.338-.004.008v.004l-.071.329v.004l-.004.008-1.358-.363z"/><path d="m123.079 426.4 1.358.363v.004l-.004.008-.075.325v.004l-.004.008-1.354-.388z"/><path d="m123.004 426.713 1.354.388v.004l-.004.008-.083.321v.013l-1.35-.408z"/><path d="m122.925 427.025 1.346.408v.013l-.088.325-.004.004v.008l-1.342-.438.088-.321z"/><path d="m122.842 427.334 1.342.438-.004.004v.008l-.092.321-.004.008v.004l-1.333-.463.092-.321z"/><path d="m122.754 427.642 1.333.463-.004.008v.004l-.1.321v.004l-.004.008-1.325-.488z"/><path d="m122.658 427.95 1.325.488v.004l-.004.008-.1.317-.004.008v.004l-1.317-.513z"/><path d="m122.563 428.255 1.317.513-.004.008v.004l-.108.317-.004.008v.004l-1.308-.538.108-.317z"/><path d="m122.458 428.559 1.308.538-.004.008v.004l-.113.317-.004.004v.008l-1.304-.563z"/><path d="m122.346 428.863 1.304.563-.004.004v.008l-.121.313v.004l-.004.008-1.292-.588.117-.313z"/><path d="m122.233 429.167 1.292.583v.004l-.004.008-.125.313v.004l-.004.008-1.283-.613z"/><path d="m122.117 429.467 1.279.608v.004l-.004.008-.129.308v.004l-.004.008-1.271-.633z"/><path d="m121.992 429.763 1.271.633v.004l-.004.008-.133.308-.004.004v.008l-1.263-.658.133-.308z"/><path d="m121.863 430.059 1.263.658-.004.004v.008l-.142.304v.004l-.004.008-1.25-.679.138-.308z"/><path d="m121.729 430.355 1.25.679v.004l-.004.008-.146.304v.004l-.004.008-1.242-.704.146-.304z"/><path d="m121.592 430.646 1.238.704v.004l-.154.308v.004l-.004.008-1.229-.725.15-.304z"/><path d="m121.446 430.938 1.229.725v.004l-.158.308-.008.008-1.217-.746z"/><path d="m121.3 431.225 1.217.75-.008.008-.158.3-.004.004v.008l-1.208-.771.163-.3z"/><path d="m121.146 431.513 1.204.771-.004.004v.008l-.167.296-.004.004v.004l-1.196-.792z"/><path d="m120.988 431.796 1.192.796-.004.004v.004l-.171.296-.008.008-1.179-.813z"/><path d="m120.825 432.08 1.179.817-.008.008-.175.292v.004l-.004.008-1.167-.838.175-.292z"/><path d="m120.654 432.359 1.167.838v.004l-.004.008-.179.288-.008.008-1.154-.854.179-.292z"/><path d="m120.483 432.638 1.154.858-.008.008-.183.288-.008.008-1.142-.875.188-.288z"/><path d="m120.304 432.913 1.142.879-.008.008-.192.283v.008l-.004.004-1.129-.9z"/><path d="m120.121 433.188 1.125.896v.008l-.004.004-.196.279-.004.008-.004.004-1.113-.921z"/><path d="m119.933 433.459 1.113.917-.004.008-.004.004-.2.275-.004.008-.004.004-1.096-.942.2-.275z"/><path d="m119.742 433.725 1.096.938-.004.008-.004.004-.204.275-.008.008-1.083-.958.208-.275z"/><path d="m119.542 433.992 1.083.958-.008.008-.208.275-.008.008-1.067-.979.208-.271z"/><path d="m119.342 434.255 1.067.979-.008.008-.213.271-.008.008-1.054-1 .217-.267z"/><path d="m119.133 434.513 1.054 1-.008.008-.221.267-.008.008-1.038-1.017.221-.267z"/><path d="m118.921 434.771 1.038 1.017-.008.008-.225.267-.008.008-1.021-1.038.225-.263z"/><path d="m118.704 435.025 1.021 1.038-.008.008-.229.258-.004.008-.004.004-1.004-1.054z"/><path d="m118.483 435.275 1.004 1.054-.004.008-.004.004-.233.254-.004.008-.004.004-.992-1.075z"/><path d="m118.254 435.525.992 1.071-.004.008-.004.004-.242.254-.008.008-.971-1.092z"/><path d="m118.025 435.771.971 1.092-.008.008-.254.258-.954-1.108.246-.25z"/><path d="m117.788 436.013.954 1.108-.267.267-.938-1.125.25-.25z"/><path d="m117.546 436.255.938 1.125-.008.008-.254.242-.008.008-.921-1.138.254-.246z"/><path d="m117.3 436.492.921 1.138-.008.008-.258.242-.008.008-.904-1.158.258-.238z"/><path d="m117.05 436.725.904 1.154-.008.008-.267.238-.008.008-.883-1.171.263-.238z"/><path d="m116.796 436.955.883 1.171-.008.008-.267.233-.008.008-.871-1.188.271-.233z"/><path d="m116.533 437.18.871 1.188-.008.008-.275.229-.008.008-.85-1.204.271-.229z"/><path d="m116.271 437.405.85 1.2-.008.008-.279.229h-.004l-.004.004-.833-1.217.279-.225z"/><path d="m116 437.621.833 1.221h-.004l-.004.004-.288.225-.008.008-.813-1.233.283-.225z"/><path d="m115.725 437.838.813 1.233-.008.008-.288.217-.008.008-.796-1.246.288-.221z"/><path d="m115.446 438.05.796 1.246-.008.008-.296.217h-.004l-.004.004-.775-1.258z"/><path d="m115.163 438.259.775 1.263h-.004l-.004.004-.296.213-.008.004-.004.004-.758-1.275z"/><path d="m114.871 438.463.763 1.275-.008.004-.004.004-.3.204-.004.004-.008.004-.738-1.288.3-.208z"/><path d="m114.579 438.667.742 1.283-.004.004-.008.004-.304.204h-.008l-.004.004-.721-1.296.308-.204z"/><path d="m114.279 438.863.725 1.3h-.008l-.004.004-.313.2-.008.008-.704-1.313.313-.2z"/><path d="m113.979 439.059.7 1.308-.008.008-.317.192-.008.008-.683-1.321.317-.196z"/><path d="m113.671 439.246.683 1.321-.008.008-.325.192h-.004l-.004.004-.663-1.333z"/><path d="m113.358 439.434.663 1.333h-.004l-.004.004-.329.188-.004.004h-.004l-.646-1.342z"/><path d="m113.042 439.613.642 1.346-.004.004h-.004l-.329.183-.008.004h-.004l-.625-1.354z"/><path d="m112.717 439.792.629 1.354-.008.004h-.004l-.333.179-.008.004h-.004l-.604-1.363.333-.179z"/><path d="m112.392 439.963.608 1.367-.008.004h-.004l-.342.175-.617-1.358.013-.008.008-.004.342-.175z"/><path d="m112.029 440.15.013-.008.008-.004.617 1.358-.329.183-.004.004h-.004l-.629-1.354z"/><path d="m111.708 440.325.629 1.354-.004.004h-.004l-.333.179h-.004l-.008.004-.608-1.363z"/><path d="m111.383 440.5.613 1.363h-.004l-.008.004-.333.171-.004.004h-.004l-.592-1.371z"/><path d="m111.058 440.667.592 1.371-.004.004h-.004l-.338.167-.004.004h-.004l-.571-1.379z"/><path d="m110.733 440.825.571 1.383-.004.004h-.004l-.338.163h-.004l-.004.004-.554-1.392z"/><path d="m110.404 440.984.554 1.392h-.004l-.004.004-.342.154h-.004l-.004.004-.533-1.4z"/><path d="m110.075 441.134.533 1.4h-.004l-.004.004-.342.15h-.004l-.004.004-.517-1.408z"/><path d="m109.742 441.28.517 1.408h-.004l-.004.004-.342.142-.004.004h-.004l-.5-1.417z"/><path d="m109.413 441.417.496 1.417-.004.004h-.004l-.346.138-.004.004h-.004l-.479-1.421z"/><path d="m109.075 441.555.479 1.421-.004.004h-.004l-.346.133h-.004l-.004.004-.458-1.429z"/><path d="m108.742 441.684.458 1.429h-.004l-.004.004-.346.125-.004.004h-.004l-.442-1.438z"/><path d="m108.404 441.805.442 1.438-.004.004h-.004l-.346.121-.008.004h-.004l-.421-1.442z"/><path d="m108.067 441.925.425 1.442-.008.004h-.004l-.346.117h-.004l-.004.004-.404-1.45z"/><path d="m107.729 442.038.404 1.45h-.004l-.004.004-.35.108-.004.004h-.008l-.383-1.458z"/><path d="m107.392 442.146.383 1.454-.004.004h-.008l-.346.104-.008.004h-.004l-.363-1.463z"/><path d="m107.05 442.246.367 1.463-.008.004h-.004l-.35.1h-.008l-.346-1.467.35-.1z"/><path d="m106.708 442.346.346 1.467h-.008l-.354.096h-.004l-.004.004-.325-1.475z"/><path d="m106.367 442.438.325 1.471h-.004l-.004.004-.35.088h-.013l-.308-1.475z"/><path d="m106.025 442.521.308 1.479h-.013l-.35.088h-.013l-.288-1.483.354-.083z"/><path d="m105.679 442.605.292 1.483h-.013l-.354.079h-.008l-.271-1.483z"/><path d="m105.338 442.68.267 1.488h-.008l-.354.075h-.008l-.25-1.488.354-.075z"/><path d="m104.992 442.75.25 1.492h-.008l-.354.067-.004.004h-.004l-.233-1.496z"/><path d="m104.646 442.817.233 1.492-.004.004h-.004l-.358.063h-.008l-.213-1.496z"/><path d="m104.3 442.875.213 1.5h-.008l-.354.058h-.008l-.196-1.5.354-.058z"/><path d="m103.954 442.934.196 1.5h-.008l-.358.05h-.004l-.004.004-.175-1.504z"/><path d="m103.608 442.984.175 1.5h-.004l-.004.004-.354.046h-.013l-.154-1.504z"/><path d="m103.263 443.025.158 1.508h-.013l-.354.042h-.008l-.138-1.508.354-.042z"/><path d="m102.917 443.067.138 1.508h-.008l-.358.033h-.004l-.004.004-.121-1.513.358-.033z"/><path d="m102.571 443.1.117 1.508h-.004l-.004.004-.358.029h-.008l-.1-1.513.358-.029z"/><path d="m102.221 443.13.1 1.513h-.008l-.354.025h-.013l-.079-1.513z"/><path d="m101.875 443.155.083 1.513h-.013l-.354.021h-.008l-.063-1.513.354-.021z"/><path d="m101.529 443.175.063 1.513h-.008l-.358.013h-.008l-.042-1.513.354-.013z"/><path d="m101.183 443.188.042 1.513h-.008l-.354.013h-.008l-.025-1.517.354-.008z"/><path d="m100.838 443.196.025 1.517-.375.004-.004-1.517z"/><path d="m100.492 443.2.004 1.517-.371-.004.013-1.513z"/><path d="m100.146 443.2-.013 1.513-.375-.004.033-1.517.354.008z"/><path d="m99.8 443.196-.029 1.513h-.013l-.354-.013h-.008l.05-1.513z"/><path d="m99.458 443.184-.054 1.513h-.008l-.354-.017h-.008l.071-1.513.354.017z"/><path d="m99.113 443.167-.071 1.513h-.008l-.354-.021h-.008l.092-1.513.35.021z"/><path d="m98.771 443.146-.092 1.513h-.008l-.35-.029h-.013l.108-1.513z"/><path d="m98.429 443.121-.108 1.508h-.013l-.35-.033h-.008l.125-1.508z"/><path d="m98.088 443.088-.129 1.508h-.008l-.35-.038h-.008l.142-1.508.354.038z"/><path d="m97.746 443.055-.146 1.504h-.008l-.35-.042h-.004l-.008-.004.167-1.5.35.042z"/><path d="m97.404 443.013-.163 1.504h-.004l-.008-.004-.346-.046h-.013l.183-1.504.35.05z"/><path d="m97.067 442.967-.183 1.5h-.013l-.346-.054h-.008l.2-1.5z"/><path d="m96.729 442.917-.204 1.496h-.008l-.346-.058h-.013l.221-1.496z"/><path d="m96.392 442.859-.221 1.496h-.013l-.342-.063h-.008l-.004-.004.242-1.492z"/><path d="m96.054 442.8-.238 1.492h-.008l-.004-.004-.342-.067h-.013l.258-1.488.346.067z"/><path d="m95.721 442.734-.258 1.488h-.013l-.342-.071-.004-.004H95.1l.275-1.483z"/><path d="m95.388 442.663-.279 1.488-.004-.004H95.1l-.342-.075-.004-.004h-.004l.296-1.479z"/><path d="m95.054 442.588-.296 1.483-.004-.004h-.004l-.342-.083H94.4l.313-1.475.342.079z"/><path d="m94.725 442.509-.317 1.475H94.4l-.338-.088h-.004l-.008-.004.333-1.471z"/><path d="m94.396 442.425-.333 1.471h-.004l-.008-.004-.338-.092h-.008l.354-1.467.338.092z"/><path d="m94.067 442.334-.354 1.467h-.008l-.333-.1h-.013l.371-1.463z"/><path d="m93.742 442.242-.371 1.458h-.013l-.333-.104h-.004l-.004-.004.392-1.454z"/><path d="m93.417 442.142-.392 1.454h-.004l-.004-.004-.333-.104h-.004l-.004-.004.408-1.45z"/><path d="m93.092 442.038-.408 1.45h-.004l-.004-.004-.329-.113h-.008l.425-1.446z"/><path d="m92.771 441.93-.425 1.442h-.008l-.329-.117-.004-.004H92l.446-1.438z"/><path d="m92.454 441.817-.446 1.438-.004-.004H92l-.329-.121-.004-.004h-.004l.463-1.429z"/><path d="m92.138 441.7-.467 1.429-.004-.004h-.004l-.325-.125-.004-.004h-.004l.483-1.421z"/><path d="M91.821 441.575 91.338 443l-.004-.004h-.004l-.321-.133H91l-.004-.004.504-1.413z"/><path d="m91.508 441.45-.5 1.413H91l-.004-.004-.321-.133-.004-.004h-.004l.521-1.408.321.138z"/><path d="m91.196 441.317-.521 1.408-.004-.004h-.004l-.317-.142h-.004l-.004-.004.538-1.396z"/><path d="m90.888 441.184-.538 1.396h-.004l-.004-.004-.317-.146h-.004l-.004-.004.554-1.388z"/><path d="m90.583 441.042-.558 1.388h-.004l-.004-.004-.317-.15h-.004l-.004-.004.575-1.379z"/><path d="m90.279 440.896-.579 1.379h-.004l-.004-.004-.313-.154-.004-.004h-.004l.596-1.371z"/><path d="m89.975 440.746-.596 1.371-.004-.004h-.004l-.308-.158-.008-.008.613-1.358z"/><path d="m89.675 440.592-.613 1.363-.008-.008-.308-.163-.004-.004h-.004l.633-1.354z"/><path d="m89.379 440.434-.633 1.35-.004-.004h-.004l-.304-.171h-.004l-.004-.004.65-1.342z"/><path d="m89.083 440.267-.65 1.342h-.004l-.004-.004-.3-.175h-.004l-.004-.004.667-1.329z"/><path d="m88.792 440.1-.667 1.329h-.004l-.004-.004-.3-.179h-.004l-.004-.004.688-1.321z"/><path d="m88.504 439.925-.688 1.321h-.004l-.004-.004-.296-.183-.004-.004h-.004l.704-1.313z"/><path d="m88.217 439.75-.704 1.308-.004-.004h-.004l-.296-.192h-.004l-.004-.004.725-1.296z"/><path d="m87.933 439.567-.725 1.296h-.004l-.004-.004-.288-.192-.004-.004-.008-.004.742-1.283.292.192z"/><path d="m87.654 439.384-.742 1.283-.004-.004-.008-.004-.283-.196-.004-.004h-.008l.763-1.275.288.2z"/><path d="m87.375 439.192-.758 1.271-.004-.004h-.008l-.283-.204h-.004l-.004-.004.779-1.263z"/><path d="m87.1 438.996-.779 1.258h-.004l-.004-.004-.279-.208h-.004l-.004-.004.792-1.246z"/><path d="m86.829 438.796-.796 1.246h-.004l-.004-.004-.279-.213-.004-.004h-.004l.813-1.233z"/><path d="m86.558 438.592-.813 1.233-.004-.004h-.004l-.275-.217-.008-.008.829-1.217z"/><path d="m86.292 438.384-.829 1.221-.008-.008-.271-.221h-.004l-.004-.004.846-1.204.271.217z"/><path d="m86.029 438.171-.846 1.204h-.004l-.004-.004-.271-.225-.008-.008.867-1.192z"/><path d="m85.771 437.955-.867 1.192-.008-.008-.263-.229-.008-.008.883-1.175.263.229z"/><path d="m85.517 437.734-.883 1.175-.008-.008-.263-.233-.008-.008.9-1.158.263.233z"/><path d="m85.263 437.509-.9 1.158-.008-.008-.258-.238-.008-.008.921-1.142.254.238z"/><path d="m85.017 437.28-.921 1.142-.008-.008-.254-.242-.008-.008.938-1.125.254.242z"/><path d="m84.771 437.046-.938 1.125-.008-.008-.258-.254.954-1.113z"/><path d="m84.529 436.809-.954 1.108-.008-.008-.254-.258.971-1.096.246.254z"/><path d="m84.292 436.563-.971 1.096-.008-.008-.242-.258-.008-.008.988-1.075.242.254z"/><path d="m84.058 436.317-.988 1.075-.008-.008-.238-.258-.008-.008 1-1.058.242.258z"/><path d="m83.825 436.067-1 1.058-.008-.008-.238-.267-.008-.008 1.021-1.042z"/><path d="m83.6 435.813-1.021 1.038-.008-.008-.229-.271-.008-.008 1.033-1.021.233.271z"/><path d="m83.375 435.55-1.033 1.021-.008-.008-.225-.275-.008-.008 1.05-1 .225.271z"/><path d="m83.158 435.288-1.05 1-.008-.008-.225-.279v-.004l-.004-.004 1.063-.983.225.279z"/><path d="m82.942 435.021-1.067.979v-.004l-.004-.004-.221-.283-.008-.008 1.083-.963z"/><path d="m82.733 434.746-1.083.963-.008-.008-.213-.288-.008-.008 1.096-.942.217.283z"/><path d="m82.525 434.471-1.096.942-.008-.008-.208-.292-.008-.008 1.113-.925.208.292z"/><path d="m82.325 434.192-1.113.921-.008-.008-.204-.296-.004-.004-.004-.008 1.125-.9.208.296z"/><path d="m82.125 433.909-1.125.9-.004-.004-.004-.008-.2-.3-.008-.008 1.142-.879z"/><path d="m81.929 433.617-1.138.879-.008-.008-.196-.304-.004-.004-.004-.008 1.154-.854.196.3z"/><path d="m81.742 433.325-1.154.858-.004-.004-.004-.008-.192-.308-.004-.004v-.004l1.167-.838z"/><path d="m81.558 433.03-1.171.833-.004-.004v-.004l-.188-.313-.038-.758.588-.413.625.346z"/><path d="m80.783 433.888-.608-.379v-.758l.608-.379zl-.608-.379v-.758l.608-.379z"/></g><path d="M89.229 411.492c-1.333-2.408-.888-4.808 1.779-6.254 2.221-.963 4.892-.479 6.225 1.446 1.333 2.4.446 4.808-1.779 6.25-2.225.963-4.892.479-6.225-1.442m15.117-.483c-1.333-1.925-.446-4.325 1.779-5.771s5.338-.479 6.225 1.446c1.333 2.4.888 4.808-1.333 6.25-2.225.963-5.338.479-6.671-1.925m8.45 13.462c-1.333-2.4-.446-4.808 1.779-6.25 2.221-.963 4.888-.479 6.221 1.442 1.333 2.408.446 4.808-1.775 6.254-2.225.963-4.892.479-6.225-1.446m-8.004 12.988c-1.333-2.408-.446-4.808 1.779-6.254 2.221-.963 5.333-.479 6.667 1.925.892 1.921.446 4.329-1.775 5.771s-5.338.479-6.671-1.442m-15.563-.963c-1.333-1.925-.888-4.329 1.333-5.771s5.338-.483 6.671 1.442c1.333 2.404.446 4.808-1.779 6.25-2.225.963-5.338.483-6.225-1.921m-8.004-12.504c-1.333-1.921-.442-4.808 1.779-5.771 2.225-1.442 4.892-.479 6.225 1.442s.446 4.808-1.779 5.771c-2.221 1.446-4.888.483-6.225-1.442m15.563.479c-1.333-2.4-.442-4.808 1.779-6.25 2.225-.963 4.892-.479 6.225 1.925 1.333 1.925.442 4.808-1.779 5.771-2.221 1.442-4.892.479-6.225-1.446"/></g><defs><path id="A" d="m42.629 478.33-7.2 7.783h-7.196V326.859l3.6-6.742h7.196l3.6 6.742z"/><path id="B" d="M35.429 334.642 29.2 330.75v-7.783l6.229-3.892zL29.2 330.75v-7.783l6.229-3.892z"/></defs></svg>