<?xml version="1.0" encoding="utf-8"?>
<!-- Generator: Adobe Illustrator 19.2.1, SVG Export Plug-In . SVG Version: 6.00 Build 0)  -->
<svg version="1.1" id="layer" xmlns="http://www.w3.org/2000/svg" xmlns:xlink="http://www.w3.org/1999/xlink" x="0px" y="0px"
	 viewBox="0 220 652 200" style="enable-background:new 0 0 652 652;" xml:space="preserve">
<style type="text/css">
	.st0{fill:#231815;}
	.st1{fill:#E50012;}
</style>
<polygon class="st0" points="60.5,255.7 60.5,283.3 89.6,283.3 89.6,355.5 116.1,355.5 116.1,255.7 "/>
<rect x="50.5" y="246.9" class="st0" width="6.4" height="36.4"/>
<polygon class="st0" points="20.5,255.7 20.5,355.5 76.1,355.5 76.1,327.9 46.9,327.9 46.9,255.7 "/>
<rect x="79.6" y="327.9" class="st0" width="6.4" height="36.4"/>
<rect x="150.6" y="252.8" class="st1" width="23.5" height="107.7"/>
<path class="st1" d="M339.7,281.7v78.8h25.2v-40.2c0.2-19.7,22.4-21,22.4-21v-19c-12.3,0-22.4,9.4-22.4,9.4v-8.1H339.7z"/>
<path class="st1" d="M443.7,281.7v78.9h24.2v-46.5c0-11.2,17.9-12,17.9,0v46.5h23.7v-59c0-11.9-15.6-29.4-41.7-12.4v-7.4H443.7z"/>
<path class="st0" d="M608.1,275.8c-5.8,0-10.6-4.8-10.6-10.6c0-5.8,4.8-10.6,10.6-10.6c5.8,0,10.6,4.8,10.6,10.6
	C618.7,271.1,614,275.8,608.1,275.8 M608.1,252.8c-6.8,0-12.4,5.6-12.4,12.4c0,6.9,5.6,12.4,12.4,12.4c6.8,0,12.4-5.6,12.4-12.4
	C620.5,258.4,615,252.8,608.1,252.8"/>
<path class="st0" d="M604.9,264.5h4.1c1.3,0,2.6-0.3,2.6-2.2c0-2-1.5-2.2-2.3-2.2h-4.4V264.5z M604.9,271.6h-1.8v-13h6
	c2.1,0,4.3,0.7,4.3,3.5c0,1.9-1,2.6-1.8,3.1c0.7,0.3,1.5,0.6,1.5,2.4l0.1,2.4c0,0.7,0.1,1,0.7,1.3v0.3h-2.1
	c-0.3-0.8-0.3-2.8-0.3-3.3c0-1.1-0.2-2.3-2.3-2.3h-4.2V271.6z"/>
<path class="st1" d="M393.1,298.7c0,0,2.2-0.6,11.2-0.2c11.5,0.4,10.1,9.8,10.1,9.8s-5.6-3.4-13.6-3.5c-8.9-0.2-26.6,5.3-26.6,28.7
	c0,20.7,16.5,26.7,26.4,26.7c9.5,0,14.9-4.6,14.9-4.6v5h22.8v-53.7c0-10.5-1.9-13.3-6.7-18.6c-6.6-7.4-22.4-8-22.4-8h-16.1V298.7z
	 M395.5,331.6c0-5.6,4.5-10.1,10.1-10.1c5.6,0,10.1,4.5,10.1,10.1c0,5.6-4.5,10.1-10.1,10.1C400,341.7,395.5,337.2,395.5,331.6"/>
<path class="st1" d="M549.6,337.1c-8.4,0-15.2-6.8-15.2-15.2c0-8.4,6.8-15.2,15.2-15.2c8.4,0,15.2,6.8,15.2,15.2
	C564.8,330.3,558,337.1,549.6,337.1 M549.9,284.2c-25.2-0.6-36,20.7-35.9,37.4c-0.2,21.9,14.3,39.8,35.7,38
	c5.1-0.5,9.3-2.5,13.5-5.8v6.7h24.4V252.8h-24.4v35.8C558.1,284.9,549.9,284.2,549.9,284.2"/>
<path class="st1" d="M295.6,336.4c-8.4,0-15.2-6.8-15.2-15.2c0-8.4,6.8-15.3,15.2-15.3c8.4,0,15.3,6.8,15.3,15.3
	C310.8,329.6,304,336.4,295.6,336.4 M297.3,373.1c-11.2-0.5-13.5-7.6-13.5-7.6h-28.2c5.9,39.4,75,40.9,78.2,3.2v-87h-23.6v8.2
	c-16.2-16.4-54-4.5-52.7,32.4c1.2,34.5,37.8,44.9,52.7,31.5v9.3C310.2,373.6,297.3,373.1,297.3,373.1"/>
<path class="st1" d="M203.1,311.2c0.8-6.5,6.3-11.6,13-11.6c6.7,0,12.3,5.1,13,11.6H203.1z M216.1,278.8c-19.2,0-38,15.7-38,40.6
	c0,27.9,17.5,44.2,40.5,43.5c17.7-0.6,29.9-11.7,34.3-27.4H229c-1.2,2.5-4.7,5.4-11.8,5.4c-9,0-13.7-6.6-13.7-13.2l50.9,0
	C257.3,298.6,238.6,278.8,216.1,278.8"/>
</svg>
