<svg viewBox="0 160 734 420" xmlns="http://www.w3.org/2000/svg" xml:space="preserve"><path d="M151.662 194.22c-30.267 2.8-62 9.866-79.866 17.733-33.6 14.933-51.734 44.933-45.734 76.133 5.067 26.667 19.334 50.934 45.6 77.467 8.934 9.067 16.8 16.533 17.467 16.533s1.333-17.466 1.6-41.066l.4-40.934 162.933-.4c114.533-.266 165.6.134 171.867 1.2 45.2 7.467 70.933 59.334 49.6 99.867-2.134 4-4 7.733-4.267 8.267-.267.666 38 1.066 85.067 1.066 93.466 0 91.333.134 94.533-7.733 2-4.667.8-9.867-2.8-13.2-2.533-2.267-7.2-2.4-66.933-3.067l-64.134-.666-8.933-4.4c-9.333-4.534-14.267-9.6-19.867-20.267-2.666-5.067-3.2-8-3.2-18 0-10.933.4-12.667 4.134-19.333 5.333-9.2 14-16.667 23.6-20 6.533-2.4 11.066-2.667 35.866-2.667h28.4l-9.333-5.467c-12-7.066-47.333-24.8-63.467-32-76.8-33.866-160.8-56.666-244.533-66.533-27.467-3.2-86-4.667-108-2.533" style="fill:#ff2545;"/><path d="M120.329 330.086v24h157.733l-.8 3.6c-.4 2.134-2.667 8.934-4.933 15.334l-4.267 11.733H120.329v11.2c0 7.733.533 11.333 1.733 11.733.8.4 37.867.534 82.267.534l80.666-.134v-77.333l-82.266-.4zm196 .667v78.133l53.066-.4 52.934-.4 7.6-3.733c13.733-6.667 21.2-18.267 22.133-34.267.533-8.4.133-11.333-2.4-17.066-3.467-8-10.933-15.334-19.867-19.467-6-2.667-7.733-2.8-59.733-2.8zm202 4c-5.2 5.067-4.934 11.733.8 16.933l3.866 3.734h62.667c38.133 0 64 .533 66.267 1.333 3.466 1.2 3.333.933-1.6-3.467-2.934-2.666-10.134-8.666-16-13.333l-10.534-8.533H521.529zm162.666 63.067c0 9.6-.666 12.666-3.2 17.6-5.333 10.133-10.533 15.733-18.533 19.6l-7.6 3.733H412.729c-131.467 0-239.067.267-239.067.667 0 1.066 25.2 14.8 44 24.133 59.733 29.466 121.067 49.466 197.333 64.533 110.934 21.867 212.934 13.467 262.134-21.467 32.533-22.933 40-56.666 20.933-94.266-4.667-9.333-14-24.133-16-25.333-.667-.4-1.067 4.533-1.067 10.8" style="fill:#ff2545;"/></svg>