<?xml version="1.0" encoding="utf-8"?>
<!-- Generator: Adobe Illustrator 19.2.1, SVG Export Plug-In . SVG Version: 6.00 Build 0)  -->
<svg version="1.1" id="layer" xmlns="http://www.w3.org/2000/svg" xmlns:xlink="http://www.w3.org/1999/xlink" x="0px" y="0px"
	 viewBox="10 220 652 200" style="enable-background:new 0 0 0 0;" xml:space="preserve">
<style type="text/css">
	.st0{clip-path:url(#SVGID_2_);fill:url(#SVGID_3_);}
	.st1{fill:#FFFFFF;}
	.st2{fill-rule:evenodd;clip-rule:evenodd;fill:#000005;}
	.st3{fill:#231815;}
</style>
<g>
	<defs>
		<path id="SVGID_1_" d="M21,322.1c0,38.7,31.4,70,70,70c38.7,0,70-31.4,70-70s-31.3-70-70-70C52.3,252,21,283.4,21,322.1"/>
	</defs>
	<clipPath id="SVGID_2_">
		<use xlink:href="#SVGID_1_"  style="overflow:visible;"/>
	</clipPath>
	
		<radialGradient id="SVGID_3_" cx="33.196" cy="676.6681" r="8.3333" gradientTransform="matrix(8.4035 0 0 -8.4035 -187.9686 6008.4233)" gradientUnits="userSpaceOnUse">
		<stop  offset="0" style="stop-color:#F2F2F3"/>
		<stop  offset="0.7584" style="stop-color:#007C61"/>
		<stop  offset="1" style="stop-color:#007C61"/>
	</radialGradient>
	<rect x="21" y="252" class="st0" width="140.1" height="140"/>
</g>
<g>
	<path class="st1" d="M69.7,289.5c-1.9,1.2-2.4,3.7-1.2,5.6c1.2,1.9,3.7,2.4,5.6,1.2c5-3.3,10.8-5,16.8-5c6,0,11.8,1.7,16.8,5
		c1.9,1.2,4.4,0.7,5.6-1.2c1.2-1.9,0.7-4.4-1.2-5.6c-6.3-4.1-13.7-6.3-21.2-6.3C83.4,283.2,76,285.3,69.7,289.5"/>
	<path class="st1" d="M61.4,298.6c-1.1,0.2-2,0.8-2.6,1.7c-4.3,6.4-6.6,13.9-6.6,21.7c0,8.5,2.7,16.6,7.8,23.4
		c1.4,1.8,3.9,2.1,5.7,0.8c1.1-0.8,1.6-2,1.6-3.2c0-0.9-0.3-1.7-0.8-2.5c-4-5.4-6.2-11.8-6.2-18.5c0-4.7,1.1-9.3,3.2-13.5
		c4.1,2.9,11,7.8,11,7.8c1.8,1.3,4.4,0.9,5.7-1c1.3-1.8,0.9-4.4-0.9-5.7l-14.6-10.4C63.5,298.7,62.4,298.4,61.4,298.6"/>
	<path class="st1" d="M117.6,299.2c-1.2,0.8-1.8,2.1-1.8,3.4c0,0.8,0.2,1.6,0.7,2.3c3.4,5.1,5.2,11,5.2,17.2
		c0,5.4-1.4,10.6-4.1,15.2c-3.8-2.7-10.1-7.2-10.1-7.2c-1.8-1.3-4.4-0.9-5.7,1c-1.3,1.8-0.9,4.4,0.9,5.7l13.6,9.7
		c1.8,1.3,4.3,0.9,5.6-0.9c5.1-6.8,7.8-14.9,7.8-23.4c0-7.8-2.3-15.3-6.7-21.8C122,298.5,119.5,298,117.6,299.2"/>
	<path class="st1" d="M86.9,287.2v70.3c0,2.2,1.8,4.1,4.1,4.1c2.2,0,4.1-1.8,4.1-4.1v-70.3c0-2.2-1.8-4.1-4.1-4.1
		C88.8,283.2,86.9,285,86.9,287.2"/>
	<path class="st1" d="M33.3,322.1c0,31.8,25.9,57.7,57.7,57.7c31.8,0,57.7-25.9,57.7-57.7c0-31.8-25.9-57.7-57.7-57.7
		C59.2,264.4,33.3,290.2,33.3,322.1 M41.4,322.1c0-27.3,22.2-49.6,49.6-49.6c27.3,0,49.6,22.2,49.6,49.6c0,27.3-22.2,49.6-49.6,49.6
		C63.7,371.6,41.4,349.4,41.4,322.1"/>
	<polygon class="st2" points="190.3,335.4 195.7,308 222,308 241.1,323.8 244.2,308 265.7,308 260.3,335.4 235.3,335.4 214.4,319.4 
		211.3,335.4 	"/>
	<polygon class="st2" points="270.9,335.4 275.7,308 324.1,308 322.9,314.7 292.2,314.7 291.6,318 316.5,318 315.3,324.8 
		290.5,324.8 289.8,328.4 322,328.4 320.8,335.4 	"/>
	<path class="st2" d="M333.3,308.3h17.4l-2.4,13.2c-0.4,1.9-0.5,3.3-0.4,4.2c0.1,0.8,0.3,1.6,0.8,2.1c0.5,0.7,1.6,1.2,3.2,1.6
		c1.6,0.4,3.6,0.6,6,0.6c2.4,0,4.5-0.2,6.2-0.6c1.7-0.4,3-0.9,3.8-1.6c0.7-0.6,1.2-1.3,1.6-2.1c0.4-0.8,0.8-2.2,1.1-4.2l0.3-1.9
		l2.1-11.4h17.4l-2.7,14.4c-0.5,3-1.4,5.2-2.5,6.6c-1.1,1.4-2.8,2.6-5,3.6c-2.4,1.1-5.6,1.9-9.5,2.5c-3.9,0.6-8.6,0.8-14.1,0.8
		c-5.5,0-10.1-0.3-13.8-0.8c-3.7-0.5-6.6-1.4-8.6-2.5c-1.8-1-3-2.2-3.6-3.6c-0.6-1.4-0.6-3.6-0.1-6.6l0.5-2.8L333.3,308.3z"/>
	<polygon class="st2" points="405.2,335.4 409.1,314.7 394.6,314.7 395.8,308.3 442.6,308.3 441.4,314.7 426.9,314.7 422.9,335.4 	
		"/>
	<polygon class="st2" points="510.8,335.4 515.8,308 536.5,308 531.5,335.4 	"/>
	<polygon class="st2" points="541.3,335.4 547,308.3 566.2,308.3 563.6,320.6 588.8,308.3 611.5,308.3 582.3,321.5 608.1,335.4 
		583.8,335.4 563.1,323.2 560.5,335.4 	"/>
	<path class="st2" d="M444.2,335.4l4.3-27.2h21.6c8.5,0,14.4,0.1,17.6,0.4c3.3,0.3,6.1,0.7,8.4,1.4c2.6,0.7,4.6,1.7,5.9,2.8
		c1.3,1.2,1.8,2.4,1.6,3.8c-0.3,2.1-2,3.8-5.1,5.1c-3.1,1.3-7.5,2.2-13.1,2.6l19,10.9h-23.4l-15.7-10.6l-1.7,10.6H444.2z
		 M465.9,321.1h3.8c4.5,0,7.8-0.3,9.9-0.8c2.1-0.6,3.3-1.4,3.5-2.6c0.2-1.4-0.6-2.3-2.4-2.9c-1.8-0.6-5-0.9-9.5-0.9H467L465.9,321.1
		z"/>
	<path class="st3" d="M621,299.6c0,3-2.3,5.3-5.4,5.3c-3,0-5.4-2.3-5.4-5.3c0-2.9,2.4-5.3,5.4-5.3C618.6,294.4,621,296.7,621,299.6
		 M611.5,299.6c0,2.3,1.7,4.2,4.1,4.2c2.3,0,4-1.9,4-4.2c0-2.3-1.7-4.2-4-4.2C613.2,295.4,611.5,297.3,611.5,299.6 M614.7,302.4
		h-1.2v-5.3c0.5-0.1,1.1-0.2,2-0.2c1,0,1.4,0.2,1.8,0.4c0.3,0.2,0.5,0.6,0.5,1.1c0,0.6-0.4,1-1.1,1.2v0.1c0.5,0.2,0.8,0.6,1,1.3
		c0.2,0.8,0.3,1.1,0.4,1.3h-1.3c-0.2-0.2-0.3-0.7-0.4-1.3c-0.1-0.6-0.4-0.8-1.1-0.8h-0.6V302.4z M614.8,299.4h0.6
		c0.7,0,1.2-0.2,1.2-0.8c0-0.5-0.4-0.8-1.1-0.8c-0.3,0-0.5,0-0.7,0.1V299.4z"/>
</g>
</svg>
