<?xml version="1.0" encoding="UTF-8" standalone="no"?>
<!DOCTYPE svg PUBLIC "-//W3C//DTD SVG 1.1//EN" "http://www.w3.org/Graphics/SVG/1.1/DTD/svg11.dtd">
<svg width="100%" height="100%" viewBox="0 0 1184 1759" version="1.1" xmlns="http://www.w3.org/2000/svg" xmlns:xlink="http://www.w3.org/1999/xlink" xml:space="preserve" xmlns:serif="http://www.serif.com/" style="fill-rule:evenodd;clip-rule:evenodd;stroke-linejoin:round;stroke-miterlimit:2;">
    <g transform="matrix(4.16667,0,0,4.16667,0,0)">
        <rect x="0" y="0.351" width="283.464" height="333.453" style="fill:rgb(237,28,36);fill-rule:nonzero;"/>
        <path d="M15.297,366.139C15.624,361.052 13.626,358.363 8.429,358.363C3.27,358.363 0,360.47 0,367.882L0,375.294C0,385.47 5.014,385.688 8.284,385.688C9.993,385.688 15.841,385.688 15.697,377.402L12.245,377.402C12.208,382.526 9.119,382.889 8.102,382.889C5.523,382.889 3.414,382.125 3.414,375.695L3.414,368.681C3.414,364.176 4.068,363.522 4.178,363.233C4.287,362.867 5.376,361.198 8.139,361.198C8.829,361.198 10.392,361.487 11.082,362.323C11.773,363.159 11.881,364.648 11.845,366.139L15.297,366.139ZM29.176,383.072C26.088,383.072 25.325,380.928 25.325,374.968C25.325,369.954 26.888,368.864 29.176,368.864C31.466,368.864 33.028,369.954 33.028,374.968C33.028,380.928 32.265,383.072 29.176,383.072ZM29.176,385.504C33.065,385.504 36.153,384.342 36.153,376.239C36.153,370.864 35.536,366.428 29.176,366.428C22.819,366.428 22.201,370.864 22.201,376.239C22.201,384.342 25.29,385.504 29.176,385.504ZM56.355,385.141L56.355,372.426C56.355,368.79 55.375,366.428 51.451,366.428C49.088,366.428 47.707,367.083 46.544,369.154L46.399,369.154L46.399,366.792L43.238,366.792C43.348,368.065 43.42,369.336 43.42,370.607L43.42,385.141L46.399,385.141L46.399,374.279C46.399,371.771 46.871,368.864 50.142,368.864C52.686,368.864 53.376,370.461 53.376,372.426L53.376,385.141L56.355,385.141ZM77.067,385.141L77.067,372.426C77.067,368.79 76.085,366.428 72.162,366.428C69.799,366.428 68.418,367.083 67.256,369.154L67.111,369.154L67.111,366.792L63.95,366.792C64.059,368.065 64.132,369.336 64.132,370.607L64.132,385.141L67.111,385.141L67.111,374.279C67.111,371.771 67.583,368.864 70.853,368.864C73.397,368.864 74.088,370.461 74.088,372.426L74.088,385.141L77.067,385.141ZM87.75,374.676C87.785,369.589 89.348,368.681 91.238,368.681C93.416,368.681 94.908,369.336 94.908,374.676L87.75,374.676ZM98.068,376.93L98.068,375.368C98.068,369.299 96.76,366.428 91.528,366.428C85.169,366.428 84.552,370.864 84.552,376.239C84.552,384.342 87.64,385.504 91.528,385.504C95.38,385.504 97.888,383.652 97.922,379.583L94.652,379.583C94.544,381.436 93.491,383.072 91.455,383.072C89.13,383.072 87.75,382.053 87.75,376.93L98.068,376.93ZM118.234,372.678C118.417,368.573 116.272,366.428 112.603,366.428C106.244,366.428 105.626,370.864 105.626,376.239C105.626,384.342 108.715,385.504 112.603,385.504C114.639,385.504 118.49,384.197 118.38,379.036L115.257,379.036C115.364,382.343 113.293,383.072 112.603,383.072C109.515,383.072 108.752,380.928 108.752,374.968C108.752,369.954 110.315,368.864 112.603,368.864C113.728,368.864 115.219,369.662 115.146,372.678L118.234,372.678ZM123.577,366.792L123.577,369.044L126.593,369.044L126.593,382.089C126.593,384.197 127.863,385.359 130.698,385.359C131.679,385.359 132.66,385.141 133.642,385.069L133.642,382.781C132.987,382.854 132.515,382.926 132.297,382.926C129.572,382.926 129.572,381.436 129.572,380.273L129.572,369.044L133.569,369.044L133.569,366.792L129.572,366.792L129.572,361.924L126.593,363.269L126.593,366.792L123.577,366.792ZM141.817,366.792L138.838,366.792L138.838,385.141L141.817,385.141L141.817,366.792ZM138.656,362.105L141.999,362.105L141.999,358.906L138.656,358.906L138.656,362.105ZM155.987,383.072C152.899,383.072 152.136,380.928 152.136,374.968C152.136,369.954 153.699,368.864 155.987,368.864C158.276,368.864 159.838,369.954 159.838,374.968C159.838,380.928 159.076,383.072 155.987,383.072ZM155.987,385.504C159.875,385.504 162.963,384.342 162.963,376.239C162.963,370.864 162.348,366.428 155.987,366.428C149.628,366.428 149.011,370.864 149.011,376.239C149.011,384.342 152.098,385.504 155.987,385.504ZM183.164,385.141L183.164,372.426C183.164,368.79 182.187,366.428 178.261,366.428C175.898,366.428 174.519,367.083 173.354,369.154L173.208,369.154L173.208,366.792L170.049,366.792C170.157,368.065 170.229,369.336 170.229,370.607L170.229,385.141L173.208,385.141L173.208,374.279C173.208,371.771 173.683,368.864 176.952,368.864C179.497,368.864 180.187,370.461 180.187,372.426L180.187,385.141L183.164,385.141Z" style="fill:rgb(99,100,102);fill-rule:nonzero;"/>
        <path d="M186.594,403.215L186.594,405.468L189.428,405.468L189.428,421.565L192.409,421.565L192.409,405.468L196.115,405.468L196.115,403.215L192.409,403.215L192.409,400.089C192.409,398.601 192.954,397.256 196.115,397.474L196.115,395.33C195.678,395.258 195.316,395.222 194.697,395.222C192.043,395.222 189.428,395.948 189.428,399.655L189.428,403.215L186.594,403.215ZM211.339,415.387C211.339,418.44 209.34,419.639 207.741,419.639C205.634,419.639 204.618,418.149 204.618,415.932L204.618,403.215L201.636,403.215L201.636,417.205C201.636,420.329 203.382,421.929 206.577,421.929C208.503,421.929 210.248,421.019 211.23,419.349L211.339,419.349L211.339,421.565L214.5,421.565C214.39,420.292 214.318,419.021 214.318,417.75L214.318,403.215L211.339,403.215L211.339,415.387ZM219.55,403.215L219.55,405.468L222.566,405.468L222.566,418.512C222.566,420.621 223.838,421.783 226.673,421.783C227.653,421.783 228.636,421.565 229.615,421.492L229.615,419.204C228.96,419.277 228.491,419.349 228.27,419.349C225.545,419.349 225.545,417.857 225.545,416.696L225.545,405.468L229.541,405.468L229.541,403.215L225.545,403.215L225.545,398.347L222.566,399.692L222.566,403.215L219.55,403.215ZM244.695,415.387C244.695,418.44 242.697,419.639 241.098,419.639C238.99,419.639 237.973,418.149 237.973,415.932L237.973,403.215L234.993,403.215L234.993,417.205C234.993,420.329 236.738,421.929 239.933,421.929C241.859,421.929 243.604,421.019 244.586,419.349L244.695,419.349L244.695,421.565L247.856,421.565C247.745,420.292 247.672,419.021 247.672,417.75L247.672,403.215L244.695,403.215L244.695,415.387ZM258.685,403.215L255.703,403.215L255.703,421.565L258.685,421.565L258.685,410.738C258.685,408.266 259.519,405.758 262.827,405.758C263.37,405.758 263.879,405.869 264.424,405.942L264.424,402.853C261.518,402.853 259.993,403.178 258.756,405.976L258.685,405.976L258.685,403.215ZM273.145,411.101C273.18,406.014 274.743,405.107 276.633,405.107C278.812,405.107 280.302,405.758 280.302,411.101L273.145,411.101ZM283.464,413.353L283.464,411.79C283.464,405.724 282.155,402.853 276.923,402.853C270.566,402.853 269.949,407.284 269.949,412.663C269.949,420.767 273.036,421.929 276.923,421.929C280.776,421.929 283.282,420.076 283.318,416.004L280.05,416.004C279.939,417.857 278.885,419.494 276.851,419.494C274.525,419.494 273.145,418.476 273.145,413.353L283.464,413.353Z" style="fill:rgb(99,100,102);fill-rule:nonzero;"/>
        <path d="M117.919,410.185L117.919,411.604L119.823,411.604L119.823,419.846C119.823,421.176 120.625,421.908 122.415,421.908C123.033,421.908 123.653,421.771 124.273,421.724L124.273,420.282C123.86,420.327 123.561,420.373 123.423,420.373C121.702,420.373 121.702,419.432 121.702,418.698L121.702,411.604L124.227,411.604L124.227,410.185L121.702,410.185L121.702,407.11L119.823,407.958L119.823,410.185L117.919,410.185ZM131.227,420.465C129.276,420.465 128.793,419.113 128.793,415.345C128.793,412.179 129.781,411.49 131.227,411.49C132.675,411.49 133.662,412.179 133.662,415.345C133.662,419.113 133.179,420.465 131.227,420.465ZM131.227,422C133.685,422 135.632,421.268 135.632,416.149C135.632,412.752 135.243,409.954 131.227,409.954C127.213,409.954 126.823,412.752 126.823,416.149C126.823,421.268 128.77,422 131.227,422ZM144.309,410.185L144.309,411.604L146.214,411.604L146.214,419.846C146.214,421.176 147.016,421.908 148.804,421.908C149.422,421.908 150.044,421.771 150.663,421.724L150.663,420.282C150.249,420.327 149.952,420.373 149.815,420.373C148.091,420.373 148.091,419.432 148.091,418.698L148.091,411.604L150.619,411.604L150.619,410.185L148.091,410.185L148.091,407.11L146.214,407.958L146.214,410.185L144.309,410.185ZM161.702,421.771L161.702,413.556C161.702,410.94 160.602,409.954 158.628,409.954C157.114,409.954 156.242,410.322 155.484,411.673L155.392,411.673L155.392,405.203L153.512,405.203L153.512,421.771L155.392,421.771L155.392,414.955C155.392,413.003 155.872,411.49 157.756,411.49C159.364,411.49 159.824,412.499 159.824,413.923L159.824,421.771L161.702,421.771ZM167.989,415.164C168.013,411.95 169,411.375 170.195,411.375C171.572,411.375 172.514,411.788 172.514,415.164L167.989,415.164ZM174.504,416.585L174.504,415.599C174.504,411.765 173.683,409.954 170.377,409.954C166.364,409.954 165.974,412.752 165.974,416.149C165.974,421.268 167.919,422 170.377,422C172.811,422 174.393,420.832 174.415,418.26L172.352,418.26C172.283,419.432 171.619,420.465 170.331,420.465C168.862,420.465 167.989,419.823 167.989,416.585L174.504,416.585Z" style="fill:rgb(99,100,102);fill-rule:nonzero;"/>
        <path d="M86.043,93.892C85.533,104.262 76.102,105.133 75.584,105.172L46.854,105.172L46.662,83.01L77.15,83.007C77.243,83.021 86.507,84.488 86.043,93.892ZM78.887,68.709L32.181,68.708L32.181,157.046L46.482,157.046L46.482,120.028L78.363,120.027C78.579,120.003 99.993,117.379 100.343,93.375C100.679,70.761 79.104,68.726 78.887,68.709ZM118.682,112.479C118.682,85.628 144.359,83.065 144.977,83.01L169.361,83.01L169.361,68.751L141.227,68.752C141.136,68.76 131.929,69.652 122.839,75.334C114.443,80.583 104.426,91.104 104.383,111.416C104.336,133.553 114.502,144.711 123.037,150.173C132.283,156.088 141.669,156.775 141.78,156.782L169.626,156.782L169.626,141.989L141.559,141.993C141.33,141.953 118.682,137.714 118.682,112.479ZM199.821,142.124L199.821,119.983L250.067,119.983L250.067,105.241L200.531,105.241L200.531,83.032L250.067,83.032L250.067,68.751L185.167,68.751L185.167,157.133L250.057,157.133L250.057,142.124L199.821,142.124Z" style="fill:white;fill-rule:nonzero;"/>
    </g>
</svg>
